M48
;GenerationSoftware,Autodesk,EAGLE,9.6.2*%
;CreationDate,2022-05-04T14:27:58Z*%
FMAT,2
ICI,OFF
METRIC,TZ,000.000
T11C0.500
T10C0.600
T9C0.813
T8C0.914
T7C1.016
T6C1.100
T5C1.500
T4C1.803
T3C2.100
T2C2.500
T1C3.213
%
G90
M71
T1
X103505Y53975
X103505Y17780
T2
X99830Y32659
X15750Y7620
X68080Y12339
X97030Y27940
X105076Y27940
X68080Y32659
X65280Y7620
X65280Y27940
X73326Y27940
X18550Y32659
X73326Y7620
X15750Y27940
X23796Y27940
X5850Y32659
X18550Y12339
X3050Y27940
X11096Y27940
X97030Y7620
X5850Y12339
X3050Y7620
X11096Y7620
X99830Y12339
X105076Y7620
X23796Y7620
T3
X85090Y3120
X52070Y23440
X52070Y32440
X85090Y23440
X85090Y12120
X52070Y3120
X52070Y12120
X85090Y32440
T4
X38989Y7620
X34290Y7620
X29591Y7620
X38989Y27940
X34290Y27940
X29591Y27940
T5
X5750Y2874
X99730Y2874
X18450Y2874
X5750Y23194
X18450Y23194
X67980Y23194
X67980Y2874
X99730Y23194
T6
X45070Y30440
X45070Y5120
X45070Y7620
X45070Y10120
X45070Y27940
X78090Y5120
X78090Y7620
X78090Y10120
X78090Y25440
X78090Y27940
X78090Y30440
X45070Y25440
T7
X24130Y53975
X21590Y53975
X40640Y13970
X16510Y53975
X24130Y17780
X21590Y17780
X19050Y17780
X16510Y17780
X40640Y50165
X38100Y50165
X35560Y50165
X33020Y50165
X30480Y50165
X38100Y13970
X35560Y13970
X19050Y53975
X33020Y13970
X30480Y13970
X27940Y13970
X40640Y21590
X38100Y21590
X35560Y21590
X33020Y21590
X30480Y21590
X27940Y21590
X27940Y57785
X30480Y57785
X33020Y57785
X35560Y57785
X38100Y57785
X40640Y57785
X27940Y50165
T8
X10160Y48895
X7620Y48895
X10160Y51435
X7620Y51435
X10160Y53975
X7620Y53975
X10160Y56515
X7620Y56515
X10160Y59055
X7620Y59055
T9
X31750Y65405
X31750Y67945
X35560Y61595
X27940Y61595
X85090Y69215
X85090Y61595
X80010Y69215
X80010Y61595
X87630Y69215
X87630Y61595
X90170Y61595
X90170Y69215
X82550Y69215
X82550Y61595
X44450Y69215
X44450Y61595
X73660Y67945
X73660Y62865
X76200Y65405
X73660Y65405
X54610Y69215
X54610Y61595
X63500Y69215
X63500Y61595
X66040Y69215
X66040Y61595
X60960Y69215
X60960Y61595
X34290Y41275
X29210Y41275
X31750Y38735
X31750Y41275
X74930Y40005
X74930Y45085
X72390Y42545
X74930Y42545
X54610Y38735
X54610Y46355
X63500Y38735
X63500Y46355
X66040Y38735
X66040Y46355
X60960Y38735
X60960Y46355
X57150Y46355
X57150Y38735
X52070Y46355
X52070Y38735
X49530Y38735
X49530Y46355
X95250Y46355
X95250Y38735
X92710Y38735
X92710Y46355
X97790Y46355
X97790Y38735
X24130Y44450
X22860Y46355
X21590Y44450
X21590Y40640
X22860Y38735
X24130Y40640
X41910Y38735
X41910Y46355
X35560Y46355
X27940Y46355
X85090Y38735
X85090Y46355
X80010Y38735
X80010Y46355
X87630Y38735
X87630Y46355
X90170Y46355
X90170Y38735
X82550Y38735
X82550Y46355
X44450Y38735
X44450Y46355
X29210Y67945
X34290Y67945
X41910Y61595
X41910Y69215
X72390Y20320
X80010Y20320
X55880Y20320
X48260Y20320
X59690Y22860
X59690Y30480
X97790Y69215
X97790Y61595
X92710Y61595
X92710Y69215
X95250Y69215
X95250Y61595
X49530Y61595
X49530Y69215
X52070Y69215
X52070Y61595
X57150Y69215
X57150Y61595
X20955Y67945
X22225Y69850
X23495Y67945
X23495Y64135
X22225Y62230
X20955Y64135
X71120Y50165
X16510Y61595
X16510Y64135
X16510Y43815
X16510Y46355
X68580Y50165
X66040Y50165
X63500Y50165
X60960Y50165
X58420Y50165
X55880Y50165
X53340Y50165
X53340Y57785
X55880Y57785
X58420Y57785
X49530Y51435
X49530Y56515
X74930Y56515
X74930Y51435
X59690Y5080
X59690Y12700
X48260Y15240
X55880Y15240
X80010Y15240
X72390Y15240
X60960Y57785
X63500Y57785
X66040Y57785
X68580Y57785
X71120Y57785
X97790Y50165
X95250Y50165
X92710Y50165
X90170Y50165
X87630Y50165
X85090Y50165
X87630Y57785
X85090Y57785
X90170Y57785
X92710Y57785
X82550Y50165
X82550Y57785
X95250Y57785
X97790Y57785
X100330Y45085
X100330Y50165
X78740Y51435
X78740Y56515
T10
X44450Y43815
X59690Y52705
X87630Y55245
X46990Y38735
X46990Y55245
X34290Y38735
X46990Y69215
X54610Y66675
X45085Y48895
X43180Y47625
X43180Y41275
X52070Y42545
X38100Y42545
X36830Y47625
X48260Y60325
X33020Y45085
X69850Y45085
X82550Y43815
X30480Y43815
X91440Y52705
X82550Y64135
X44450Y64135
X30480Y64135
X71120Y62865
X33020Y62865
X38100Y67945
X39370Y46355
X39370Y61595
X44450Y59055
T11
X3492Y35878
X4128Y35878
X4763Y35878
X104457Y35878
X103822Y35878
X103187Y35878
X53340Y35878
X53975Y35878
X54610Y35878
M30