G04 EAGLE Gerber RS-274X export*
G75*
%MOMM*%
%FSLAX34Y34*%
%LPD*%
%INBoard Outline*%
%IPPOS*%
%AMOC8*
5,1,8,0,0,1.08239X$1,22.5*%
G01*
%ADD10C,0.000000*%
%ADD11C,1.000000*%
%ADD12C,0.254000*%


D10*
X0Y355600D02*
X0Y0D01*
X1079500Y0D01*
X1079500Y355600D01*
X1050925Y355600D01*
X1025525Y355600D02*
X552450Y355600D01*
X527050Y355600D02*
X53975Y355600D01*
X28575Y355600D02*
X0Y355600D01*
X1050925Y361950D02*
X1079500Y361950D01*
X1025525Y361950D02*
X552450Y361950D01*
X527050Y361950D02*
X53975Y361950D01*
X28575Y361950D02*
X0Y361950D01*
X0Y717550D01*
X1079500Y717550D02*
X1079500Y361950D01*
X1079500Y717550D02*
X0Y717550D01*
X1018984Y177800D02*
X1018989Y178194D01*
X1019003Y178588D01*
X1019028Y178982D01*
X1019061Y179375D01*
X1019105Y179767D01*
X1019158Y180157D01*
X1019221Y180547D01*
X1019293Y180934D01*
X1019374Y181320D01*
X1019465Y181704D01*
X1019566Y182085D01*
X1019676Y182464D01*
X1019795Y182840D01*
X1019923Y183212D01*
X1020061Y183582D01*
X1020207Y183948D01*
X1020362Y184311D01*
X1020527Y184669D01*
X1020699Y185023D01*
X1020881Y185373D01*
X1021071Y185719D01*
X1021270Y186060D01*
X1021477Y186395D01*
X1021692Y186726D01*
X1021915Y187051D01*
X1022146Y187371D01*
X1022384Y187684D01*
X1022631Y187992D01*
X1022885Y188294D01*
X1023146Y188589D01*
X1023414Y188878D01*
X1023690Y189160D01*
X1023972Y189436D01*
X1024261Y189704D01*
X1024556Y189965D01*
X1024858Y190219D01*
X1025166Y190466D01*
X1025479Y190704D01*
X1025799Y190935D01*
X1026124Y191158D01*
X1026455Y191373D01*
X1026790Y191580D01*
X1027131Y191779D01*
X1027477Y191969D01*
X1027827Y192151D01*
X1028181Y192323D01*
X1028539Y192488D01*
X1028902Y192643D01*
X1029268Y192789D01*
X1029638Y192927D01*
X1030010Y193055D01*
X1030386Y193174D01*
X1030765Y193284D01*
X1031146Y193385D01*
X1031530Y193476D01*
X1031916Y193557D01*
X1032303Y193629D01*
X1032693Y193692D01*
X1033083Y193745D01*
X1033475Y193789D01*
X1033868Y193822D01*
X1034262Y193847D01*
X1034656Y193861D01*
X1035050Y193866D01*
X1035444Y193861D01*
X1035838Y193847D01*
X1036232Y193822D01*
X1036625Y193789D01*
X1037017Y193745D01*
X1037407Y193692D01*
X1037797Y193629D01*
X1038184Y193557D01*
X1038570Y193476D01*
X1038954Y193385D01*
X1039335Y193284D01*
X1039714Y193174D01*
X1040090Y193055D01*
X1040462Y192927D01*
X1040832Y192789D01*
X1041198Y192643D01*
X1041561Y192488D01*
X1041919Y192323D01*
X1042273Y192151D01*
X1042623Y191969D01*
X1042969Y191779D01*
X1043310Y191580D01*
X1043645Y191373D01*
X1043976Y191158D01*
X1044301Y190935D01*
X1044621Y190704D01*
X1044934Y190466D01*
X1045242Y190219D01*
X1045544Y189965D01*
X1045839Y189704D01*
X1046128Y189436D01*
X1046410Y189160D01*
X1046686Y188878D01*
X1046954Y188589D01*
X1047215Y188294D01*
X1047469Y187992D01*
X1047716Y187684D01*
X1047954Y187371D01*
X1048185Y187051D01*
X1048408Y186726D01*
X1048623Y186395D01*
X1048830Y186060D01*
X1049029Y185719D01*
X1049219Y185373D01*
X1049401Y185023D01*
X1049573Y184669D01*
X1049738Y184311D01*
X1049893Y183948D01*
X1050039Y183582D01*
X1050177Y183212D01*
X1050305Y182840D01*
X1050424Y182464D01*
X1050534Y182085D01*
X1050635Y181704D01*
X1050726Y181320D01*
X1050807Y180934D01*
X1050879Y180547D01*
X1050942Y180157D01*
X1050995Y179767D01*
X1051039Y179375D01*
X1051072Y178982D01*
X1051097Y178588D01*
X1051111Y178194D01*
X1051116Y177800D01*
X1051111Y177406D01*
X1051097Y177012D01*
X1051072Y176618D01*
X1051039Y176225D01*
X1050995Y175833D01*
X1050942Y175443D01*
X1050879Y175053D01*
X1050807Y174666D01*
X1050726Y174280D01*
X1050635Y173896D01*
X1050534Y173515D01*
X1050424Y173136D01*
X1050305Y172760D01*
X1050177Y172388D01*
X1050039Y172018D01*
X1049893Y171652D01*
X1049738Y171289D01*
X1049573Y170931D01*
X1049401Y170577D01*
X1049219Y170227D01*
X1049029Y169881D01*
X1048830Y169540D01*
X1048623Y169205D01*
X1048408Y168874D01*
X1048185Y168549D01*
X1047954Y168229D01*
X1047716Y167916D01*
X1047469Y167608D01*
X1047215Y167306D01*
X1046954Y167011D01*
X1046686Y166722D01*
X1046410Y166440D01*
X1046128Y166164D01*
X1045839Y165896D01*
X1045544Y165635D01*
X1045242Y165381D01*
X1044934Y165134D01*
X1044621Y164896D01*
X1044301Y164665D01*
X1043976Y164442D01*
X1043645Y164227D01*
X1043310Y164020D01*
X1042969Y163821D01*
X1042623Y163631D01*
X1042273Y163449D01*
X1041919Y163277D01*
X1041561Y163112D01*
X1041198Y162957D01*
X1040832Y162811D01*
X1040462Y162673D01*
X1040090Y162545D01*
X1039714Y162426D01*
X1039335Y162316D01*
X1038954Y162215D01*
X1038570Y162124D01*
X1038184Y162043D01*
X1037797Y161971D01*
X1037407Y161908D01*
X1037017Y161855D01*
X1036625Y161811D01*
X1036232Y161778D01*
X1035838Y161753D01*
X1035444Y161739D01*
X1035050Y161734D01*
X1034656Y161739D01*
X1034262Y161753D01*
X1033868Y161778D01*
X1033475Y161811D01*
X1033083Y161855D01*
X1032693Y161908D01*
X1032303Y161971D01*
X1031916Y162043D01*
X1031530Y162124D01*
X1031146Y162215D01*
X1030765Y162316D01*
X1030386Y162426D01*
X1030010Y162545D01*
X1029638Y162673D01*
X1029268Y162811D01*
X1028902Y162957D01*
X1028539Y163112D01*
X1028181Y163277D01*
X1027827Y163449D01*
X1027477Y163631D01*
X1027131Y163821D01*
X1026790Y164020D01*
X1026455Y164227D01*
X1026124Y164442D01*
X1025799Y164665D01*
X1025479Y164896D01*
X1025166Y165134D01*
X1024858Y165381D01*
X1024556Y165635D01*
X1024261Y165896D01*
X1023972Y166164D01*
X1023690Y166440D01*
X1023414Y166722D01*
X1023146Y167011D01*
X1022885Y167306D01*
X1022631Y167608D01*
X1022384Y167916D01*
X1022146Y168229D01*
X1021915Y168549D01*
X1021692Y168874D01*
X1021477Y169205D01*
X1021270Y169540D01*
X1021071Y169881D01*
X1020881Y170227D01*
X1020699Y170577D01*
X1020527Y170931D01*
X1020362Y171289D01*
X1020207Y171652D01*
X1020061Y172018D01*
X1019923Y172388D01*
X1019795Y172760D01*
X1019676Y173136D01*
X1019566Y173515D01*
X1019465Y173896D01*
X1019374Y174280D01*
X1019293Y174666D01*
X1019221Y175053D01*
X1019158Y175443D01*
X1019105Y175833D01*
X1019061Y176225D01*
X1019028Y176618D01*
X1019003Y177012D01*
X1018989Y177406D01*
X1018984Y177800D01*
X1018984Y539750D02*
X1018989Y540144D01*
X1019003Y540538D01*
X1019028Y540932D01*
X1019061Y541325D01*
X1019105Y541717D01*
X1019158Y542107D01*
X1019221Y542497D01*
X1019293Y542884D01*
X1019374Y543270D01*
X1019465Y543654D01*
X1019566Y544035D01*
X1019676Y544414D01*
X1019795Y544790D01*
X1019923Y545162D01*
X1020061Y545532D01*
X1020207Y545898D01*
X1020362Y546261D01*
X1020527Y546619D01*
X1020699Y546973D01*
X1020881Y547323D01*
X1021071Y547669D01*
X1021270Y548010D01*
X1021477Y548345D01*
X1021692Y548676D01*
X1021915Y549001D01*
X1022146Y549321D01*
X1022384Y549634D01*
X1022631Y549942D01*
X1022885Y550244D01*
X1023146Y550539D01*
X1023414Y550828D01*
X1023690Y551110D01*
X1023972Y551386D01*
X1024261Y551654D01*
X1024556Y551915D01*
X1024858Y552169D01*
X1025166Y552416D01*
X1025479Y552654D01*
X1025799Y552885D01*
X1026124Y553108D01*
X1026455Y553323D01*
X1026790Y553530D01*
X1027131Y553729D01*
X1027477Y553919D01*
X1027827Y554101D01*
X1028181Y554273D01*
X1028539Y554438D01*
X1028902Y554593D01*
X1029268Y554739D01*
X1029638Y554877D01*
X1030010Y555005D01*
X1030386Y555124D01*
X1030765Y555234D01*
X1031146Y555335D01*
X1031530Y555426D01*
X1031916Y555507D01*
X1032303Y555579D01*
X1032693Y555642D01*
X1033083Y555695D01*
X1033475Y555739D01*
X1033868Y555772D01*
X1034262Y555797D01*
X1034656Y555811D01*
X1035050Y555816D01*
X1035444Y555811D01*
X1035838Y555797D01*
X1036232Y555772D01*
X1036625Y555739D01*
X1037017Y555695D01*
X1037407Y555642D01*
X1037797Y555579D01*
X1038184Y555507D01*
X1038570Y555426D01*
X1038954Y555335D01*
X1039335Y555234D01*
X1039714Y555124D01*
X1040090Y555005D01*
X1040462Y554877D01*
X1040832Y554739D01*
X1041198Y554593D01*
X1041561Y554438D01*
X1041919Y554273D01*
X1042273Y554101D01*
X1042623Y553919D01*
X1042969Y553729D01*
X1043310Y553530D01*
X1043645Y553323D01*
X1043976Y553108D01*
X1044301Y552885D01*
X1044621Y552654D01*
X1044934Y552416D01*
X1045242Y552169D01*
X1045544Y551915D01*
X1045839Y551654D01*
X1046128Y551386D01*
X1046410Y551110D01*
X1046686Y550828D01*
X1046954Y550539D01*
X1047215Y550244D01*
X1047469Y549942D01*
X1047716Y549634D01*
X1047954Y549321D01*
X1048185Y549001D01*
X1048408Y548676D01*
X1048623Y548345D01*
X1048830Y548010D01*
X1049029Y547669D01*
X1049219Y547323D01*
X1049401Y546973D01*
X1049573Y546619D01*
X1049738Y546261D01*
X1049893Y545898D01*
X1050039Y545532D01*
X1050177Y545162D01*
X1050305Y544790D01*
X1050424Y544414D01*
X1050534Y544035D01*
X1050635Y543654D01*
X1050726Y543270D01*
X1050807Y542884D01*
X1050879Y542497D01*
X1050942Y542107D01*
X1050995Y541717D01*
X1051039Y541325D01*
X1051072Y540932D01*
X1051097Y540538D01*
X1051111Y540144D01*
X1051116Y539750D01*
X1051111Y539356D01*
X1051097Y538962D01*
X1051072Y538568D01*
X1051039Y538175D01*
X1050995Y537783D01*
X1050942Y537393D01*
X1050879Y537003D01*
X1050807Y536616D01*
X1050726Y536230D01*
X1050635Y535846D01*
X1050534Y535465D01*
X1050424Y535086D01*
X1050305Y534710D01*
X1050177Y534338D01*
X1050039Y533968D01*
X1049893Y533602D01*
X1049738Y533239D01*
X1049573Y532881D01*
X1049401Y532527D01*
X1049219Y532177D01*
X1049029Y531831D01*
X1048830Y531490D01*
X1048623Y531155D01*
X1048408Y530824D01*
X1048185Y530499D01*
X1047954Y530179D01*
X1047716Y529866D01*
X1047469Y529558D01*
X1047215Y529256D01*
X1046954Y528961D01*
X1046686Y528672D01*
X1046410Y528390D01*
X1046128Y528114D01*
X1045839Y527846D01*
X1045544Y527585D01*
X1045242Y527331D01*
X1044934Y527084D01*
X1044621Y526846D01*
X1044301Y526615D01*
X1043976Y526392D01*
X1043645Y526177D01*
X1043310Y525970D01*
X1042969Y525771D01*
X1042623Y525581D01*
X1042273Y525399D01*
X1041919Y525227D01*
X1041561Y525062D01*
X1041198Y524907D01*
X1040832Y524761D01*
X1040462Y524623D01*
X1040090Y524495D01*
X1039714Y524376D01*
X1039335Y524266D01*
X1038954Y524165D01*
X1038570Y524074D01*
X1038184Y523993D01*
X1037797Y523921D01*
X1037407Y523858D01*
X1037017Y523805D01*
X1036625Y523761D01*
X1036232Y523728D01*
X1035838Y523703D01*
X1035444Y523689D01*
X1035050Y523684D01*
X1034656Y523689D01*
X1034262Y523703D01*
X1033868Y523728D01*
X1033475Y523761D01*
X1033083Y523805D01*
X1032693Y523858D01*
X1032303Y523921D01*
X1031916Y523993D01*
X1031530Y524074D01*
X1031146Y524165D01*
X1030765Y524266D01*
X1030386Y524376D01*
X1030010Y524495D01*
X1029638Y524623D01*
X1029268Y524761D01*
X1028902Y524907D01*
X1028539Y525062D01*
X1028181Y525227D01*
X1027827Y525399D01*
X1027477Y525581D01*
X1027131Y525771D01*
X1026790Y525970D01*
X1026455Y526177D01*
X1026124Y526392D01*
X1025799Y526615D01*
X1025479Y526846D01*
X1025166Y527084D01*
X1024858Y527331D01*
X1024556Y527585D01*
X1024261Y527846D01*
X1023972Y528114D01*
X1023690Y528390D01*
X1023414Y528672D01*
X1023146Y528961D01*
X1022885Y529256D01*
X1022631Y529558D01*
X1022384Y529866D01*
X1022146Y530179D01*
X1021915Y530499D01*
X1021692Y530824D01*
X1021477Y531155D01*
X1021270Y531490D01*
X1021071Y531831D01*
X1020881Y532177D01*
X1020699Y532527D01*
X1020527Y532881D01*
X1020362Y533239D01*
X1020207Y533602D01*
X1020061Y533968D01*
X1019923Y534338D01*
X1019795Y534710D01*
X1019676Y535086D01*
X1019566Y535465D01*
X1019465Y535846D01*
X1019374Y536230D01*
X1019293Y536616D01*
X1019221Y537003D01*
X1019158Y537393D01*
X1019105Y537783D01*
X1019061Y538175D01*
X1019028Y538568D01*
X1019003Y538962D01*
X1018989Y539356D01*
X1018984Y539750D01*
X32425Y358775D02*
X32427Y358874D01*
X32433Y358974D01*
X32443Y359073D01*
X32457Y359171D01*
X32474Y359269D01*
X32496Y359366D01*
X32521Y359462D01*
X32550Y359557D01*
X32583Y359651D01*
X32620Y359743D01*
X32660Y359834D01*
X32704Y359923D01*
X32752Y360011D01*
X32803Y360096D01*
X32857Y360179D01*
X32914Y360261D01*
X32975Y360339D01*
X33039Y360416D01*
X33105Y360489D01*
X33175Y360560D01*
X33247Y360628D01*
X33322Y360694D01*
X33400Y360756D01*
X33480Y360815D01*
X33562Y360871D01*
X33646Y360923D01*
X33733Y360972D01*
X33821Y361018D01*
X33911Y361060D01*
X34003Y361099D01*
X34096Y361134D01*
X34190Y361165D01*
X34286Y361192D01*
X34383Y361215D01*
X34480Y361235D01*
X34578Y361251D01*
X34677Y361263D01*
X34776Y361271D01*
X34875Y361275D01*
X34975Y361275D01*
X35074Y361271D01*
X35173Y361263D01*
X35272Y361251D01*
X35370Y361235D01*
X35467Y361215D01*
X35564Y361192D01*
X35660Y361165D01*
X35754Y361134D01*
X35847Y361099D01*
X35939Y361060D01*
X36029Y361018D01*
X36117Y360972D01*
X36204Y360923D01*
X36288Y360871D01*
X36370Y360815D01*
X36450Y360756D01*
X36528Y360694D01*
X36603Y360628D01*
X36675Y360560D01*
X36745Y360489D01*
X36811Y360416D01*
X36875Y360339D01*
X36936Y360261D01*
X36993Y360179D01*
X37047Y360096D01*
X37098Y360011D01*
X37146Y359923D01*
X37190Y359834D01*
X37230Y359743D01*
X37267Y359651D01*
X37300Y359557D01*
X37329Y359462D01*
X37354Y359366D01*
X37376Y359269D01*
X37393Y359171D01*
X37407Y359073D01*
X37417Y358974D01*
X37423Y358874D01*
X37425Y358775D01*
X37423Y358676D01*
X37417Y358576D01*
X37407Y358477D01*
X37393Y358379D01*
X37376Y358281D01*
X37354Y358184D01*
X37329Y358088D01*
X37300Y357993D01*
X37267Y357899D01*
X37230Y357807D01*
X37190Y357716D01*
X37146Y357627D01*
X37098Y357539D01*
X37047Y357454D01*
X36993Y357371D01*
X36936Y357289D01*
X36875Y357211D01*
X36811Y357134D01*
X36745Y357061D01*
X36675Y356990D01*
X36603Y356922D01*
X36528Y356856D01*
X36450Y356794D01*
X36370Y356735D01*
X36288Y356679D01*
X36204Y356627D01*
X36117Y356578D01*
X36029Y356532D01*
X35939Y356490D01*
X35847Y356451D01*
X35754Y356416D01*
X35660Y356385D01*
X35564Y356358D01*
X35467Y356335D01*
X35370Y356315D01*
X35272Y356299D01*
X35173Y356287D01*
X35074Y356279D01*
X34975Y356275D01*
X34875Y356275D01*
X34776Y356279D01*
X34677Y356287D01*
X34578Y356299D01*
X34480Y356315D01*
X34383Y356335D01*
X34286Y356358D01*
X34190Y356385D01*
X34096Y356416D01*
X34003Y356451D01*
X33911Y356490D01*
X33821Y356532D01*
X33733Y356578D01*
X33646Y356627D01*
X33562Y356679D01*
X33480Y356735D01*
X33400Y356794D01*
X33322Y356856D01*
X33247Y356922D01*
X33175Y356990D01*
X33105Y357061D01*
X33039Y357134D01*
X32975Y357211D01*
X32914Y357289D01*
X32857Y357371D01*
X32803Y357454D01*
X32752Y357539D01*
X32704Y357627D01*
X32660Y357716D01*
X32620Y357807D01*
X32583Y357899D01*
X32550Y357993D01*
X32521Y358088D01*
X32496Y358184D01*
X32474Y358281D01*
X32457Y358379D01*
X32443Y358477D01*
X32433Y358576D01*
X32427Y358676D01*
X32425Y358775D01*
X38775Y358775D02*
X38777Y358874D01*
X38783Y358974D01*
X38793Y359073D01*
X38807Y359171D01*
X38824Y359269D01*
X38846Y359366D01*
X38871Y359462D01*
X38900Y359557D01*
X38933Y359651D01*
X38970Y359743D01*
X39010Y359834D01*
X39054Y359923D01*
X39102Y360011D01*
X39153Y360096D01*
X39207Y360179D01*
X39264Y360261D01*
X39325Y360339D01*
X39389Y360416D01*
X39455Y360489D01*
X39525Y360560D01*
X39597Y360628D01*
X39672Y360694D01*
X39750Y360756D01*
X39830Y360815D01*
X39912Y360871D01*
X39996Y360923D01*
X40083Y360972D01*
X40171Y361018D01*
X40261Y361060D01*
X40353Y361099D01*
X40446Y361134D01*
X40540Y361165D01*
X40636Y361192D01*
X40733Y361215D01*
X40830Y361235D01*
X40928Y361251D01*
X41027Y361263D01*
X41126Y361271D01*
X41225Y361275D01*
X41325Y361275D01*
X41424Y361271D01*
X41523Y361263D01*
X41622Y361251D01*
X41720Y361235D01*
X41817Y361215D01*
X41914Y361192D01*
X42010Y361165D01*
X42104Y361134D01*
X42197Y361099D01*
X42289Y361060D01*
X42379Y361018D01*
X42467Y360972D01*
X42554Y360923D01*
X42638Y360871D01*
X42720Y360815D01*
X42800Y360756D01*
X42878Y360694D01*
X42953Y360628D01*
X43025Y360560D01*
X43095Y360489D01*
X43161Y360416D01*
X43225Y360339D01*
X43286Y360261D01*
X43343Y360179D01*
X43397Y360096D01*
X43448Y360011D01*
X43496Y359923D01*
X43540Y359834D01*
X43580Y359743D01*
X43617Y359651D01*
X43650Y359557D01*
X43679Y359462D01*
X43704Y359366D01*
X43726Y359269D01*
X43743Y359171D01*
X43757Y359073D01*
X43767Y358974D01*
X43773Y358874D01*
X43775Y358775D01*
X43773Y358676D01*
X43767Y358576D01*
X43757Y358477D01*
X43743Y358379D01*
X43726Y358281D01*
X43704Y358184D01*
X43679Y358088D01*
X43650Y357993D01*
X43617Y357899D01*
X43580Y357807D01*
X43540Y357716D01*
X43496Y357627D01*
X43448Y357539D01*
X43397Y357454D01*
X43343Y357371D01*
X43286Y357289D01*
X43225Y357211D01*
X43161Y357134D01*
X43095Y357061D01*
X43025Y356990D01*
X42953Y356922D01*
X42878Y356856D01*
X42800Y356794D01*
X42720Y356735D01*
X42638Y356679D01*
X42554Y356627D01*
X42467Y356578D01*
X42379Y356532D01*
X42289Y356490D01*
X42197Y356451D01*
X42104Y356416D01*
X42010Y356385D01*
X41914Y356358D01*
X41817Y356335D01*
X41720Y356315D01*
X41622Y356299D01*
X41523Y356287D01*
X41424Y356279D01*
X41325Y356275D01*
X41225Y356275D01*
X41126Y356279D01*
X41027Y356287D01*
X40928Y356299D01*
X40830Y356315D01*
X40733Y356335D01*
X40636Y356358D01*
X40540Y356385D01*
X40446Y356416D01*
X40353Y356451D01*
X40261Y356490D01*
X40171Y356532D01*
X40083Y356578D01*
X39996Y356627D01*
X39912Y356679D01*
X39830Y356735D01*
X39750Y356794D01*
X39672Y356856D01*
X39597Y356922D01*
X39525Y356990D01*
X39455Y357061D01*
X39389Y357134D01*
X39325Y357211D01*
X39264Y357289D01*
X39207Y357371D01*
X39153Y357454D01*
X39102Y357539D01*
X39054Y357627D01*
X39010Y357716D01*
X38970Y357807D01*
X38933Y357899D01*
X38900Y357993D01*
X38871Y358088D01*
X38846Y358184D01*
X38824Y358281D01*
X38807Y358379D01*
X38793Y358477D01*
X38783Y358576D01*
X38777Y358676D01*
X38775Y358775D01*
X45125Y358775D02*
X45127Y358874D01*
X45133Y358974D01*
X45143Y359073D01*
X45157Y359171D01*
X45174Y359269D01*
X45196Y359366D01*
X45221Y359462D01*
X45250Y359557D01*
X45283Y359651D01*
X45320Y359743D01*
X45360Y359834D01*
X45404Y359923D01*
X45452Y360011D01*
X45503Y360096D01*
X45557Y360179D01*
X45614Y360261D01*
X45675Y360339D01*
X45739Y360416D01*
X45805Y360489D01*
X45875Y360560D01*
X45947Y360628D01*
X46022Y360694D01*
X46100Y360756D01*
X46180Y360815D01*
X46262Y360871D01*
X46346Y360923D01*
X46433Y360972D01*
X46521Y361018D01*
X46611Y361060D01*
X46703Y361099D01*
X46796Y361134D01*
X46890Y361165D01*
X46986Y361192D01*
X47083Y361215D01*
X47180Y361235D01*
X47278Y361251D01*
X47377Y361263D01*
X47476Y361271D01*
X47575Y361275D01*
X47675Y361275D01*
X47774Y361271D01*
X47873Y361263D01*
X47972Y361251D01*
X48070Y361235D01*
X48167Y361215D01*
X48264Y361192D01*
X48360Y361165D01*
X48454Y361134D01*
X48547Y361099D01*
X48639Y361060D01*
X48729Y361018D01*
X48817Y360972D01*
X48904Y360923D01*
X48988Y360871D01*
X49070Y360815D01*
X49150Y360756D01*
X49228Y360694D01*
X49303Y360628D01*
X49375Y360560D01*
X49445Y360489D01*
X49511Y360416D01*
X49575Y360339D01*
X49636Y360261D01*
X49693Y360179D01*
X49747Y360096D01*
X49798Y360011D01*
X49846Y359923D01*
X49890Y359834D01*
X49930Y359743D01*
X49967Y359651D01*
X50000Y359557D01*
X50029Y359462D01*
X50054Y359366D01*
X50076Y359269D01*
X50093Y359171D01*
X50107Y359073D01*
X50117Y358974D01*
X50123Y358874D01*
X50125Y358775D01*
X50123Y358676D01*
X50117Y358576D01*
X50107Y358477D01*
X50093Y358379D01*
X50076Y358281D01*
X50054Y358184D01*
X50029Y358088D01*
X50000Y357993D01*
X49967Y357899D01*
X49930Y357807D01*
X49890Y357716D01*
X49846Y357627D01*
X49798Y357539D01*
X49747Y357454D01*
X49693Y357371D01*
X49636Y357289D01*
X49575Y357211D01*
X49511Y357134D01*
X49445Y357061D01*
X49375Y356990D01*
X49303Y356922D01*
X49228Y356856D01*
X49150Y356794D01*
X49070Y356735D01*
X48988Y356679D01*
X48904Y356627D01*
X48817Y356578D01*
X48729Y356532D01*
X48639Y356490D01*
X48547Y356451D01*
X48454Y356416D01*
X48360Y356385D01*
X48264Y356358D01*
X48167Y356335D01*
X48070Y356315D01*
X47972Y356299D01*
X47873Y356287D01*
X47774Y356279D01*
X47675Y356275D01*
X47575Y356275D01*
X47476Y356279D01*
X47377Y356287D01*
X47278Y356299D01*
X47180Y356315D01*
X47083Y356335D01*
X46986Y356358D01*
X46890Y356385D01*
X46796Y356416D01*
X46703Y356451D01*
X46611Y356490D01*
X46521Y356532D01*
X46433Y356578D01*
X46346Y356627D01*
X46262Y356679D01*
X46180Y356735D01*
X46100Y356794D01*
X46022Y356856D01*
X45947Y356922D01*
X45875Y356990D01*
X45805Y357061D01*
X45739Y357134D01*
X45675Y357211D01*
X45614Y357289D01*
X45557Y357371D01*
X45503Y357454D01*
X45452Y357539D01*
X45404Y357627D01*
X45360Y357716D01*
X45320Y357807D01*
X45283Y357899D01*
X45250Y357993D01*
X45221Y358088D01*
X45196Y358184D01*
X45174Y358281D01*
X45157Y358379D01*
X45143Y358477D01*
X45133Y358576D01*
X45127Y358676D01*
X45125Y358775D01*
X31750Y358775D02*
X31748Y358886D01*
X31742Y358996D01*
X31733Y359107D01*
X31719Y359217D01*
X31702Y359326D01*
X31681Y359435D01*
X31656Y359543D01*
X31627Y359650D01*
X31595Y359756D01*
X31559Y359861D01*
X31519Y359964D01*
X31476Y360066D01*
X31429Y360167D01*
X31378Y360266D01*
X31325Y360363D01*
X31268Y360457D01*
X31207Y360550D01*
X31144Y360641D01*
X31077Y360730D01*
X31007Y360816D01*
X30934Y360899D01*
X30859Y360981D01*
X30781Y361059D01*
X30699Y361134D01*
X30616Y361207D01*
X30530Y361277D01*
X30441Y361344D01*
X30350Y361407D01*
X30257Y361468D01*
X30163Y361525D01*
X30066Y361578D01*
X29967Y361629D01*
X29866Y361676D01*
X29764Y361719D01*
X29661Y361759D01*
X29556Y361795D01*
X29450Y361827D01*
X29343Y361856D01*
X29235Y361881D01*
X29126Y361902D01*
X29017Y361919D01*
X28907Y361933D01*
X28796Y361942D01*
X28686Y361948D01*
X28575Y361950D01*
X31750Y358775D02*
X31748Y358664D01*
X31742Y358554D01*
X31733Y358443D01*
X31719Y358333D01*
X31702Y358224D01*
X31681Y358115D01*
X31656Y358007D01*
X31627Y357900D01*
X31595Y357794D01*
X31559Y357689D01*
X31519Y357586D01*
X31476Y357484D01*
X31429Y357383D01*
X31378Y357284D01*
X31325Y357187D01*
X31268Y357093D01*
X31207Y357000D01*
X31144Y356909D01*
X31077Y356820D01*
X31007Y356734D01*
X30934Y356651D01*
X30859Y356569D01*
X30781Y356491D01*
X30699Y356416D01*
X30616Y356343D01*
X30530Y356273D01*
X30441Y356206D01*
X30350Y356143D01*
X30257Y356082D01*
X30162Y356025D01*
X30066Y355972D01*
X29967Y355921D01*
X29866Y355874D01*
X29764Y355831D01*
X29661Y355791D01*
X29556Y355755D01*
X29450Y355723D01*
X29343Y355694D01*
X29235Y355669D01*
X29126Y355648D01*
X29017Y355631D01*
X28907Y355617D01*
X28796Y355608D01*
X28686Y355602D01*
X28575Y355600D01*
X50800Y358775D02*
X50802Y358886D01*
X50808Y358996D01*
X50817Y359107D01*
X50831Y359217D01*
X50848Y359326D01*
X50869Y359435D01*
X50894Y359543D01*
X50923Y359650D01*
X50955Y359756D01*
X50991Y359861D01*
X51031Y359964D01*
X51074Y360066D01*
X51121Y360167D01*
X51172Y360266D01*
X51225Y360363D01*
X51282Y360457D01*
X51343Y360550D01*
X51406Y360641D01*
X51473Y360730D01*
X51543Y360816D01*
X51616Y360899D01*
X51691Y360981D01*
X51769Y361059D01*
X51851Y361134D01*
X51934Y361207D01*
X52020Y361277D01*
X52109Y361344D01*
X52200Y361407D01*
X52293Y361468D01*
X52388Y361525D01*
X52484Y361578D01*
X52583Y361629D01*
X52684Y361676D01*
X52786Y361719D01*
X52889Y361759D01*
X52994Y361795D01*
X53100Y361827D01*
X53207Y361856D01*
X53315Y361881D01*
X53424Y361902D01*
X53533Y361919D01*
X53643Y361933D01*
X53754Y361942D01*
X53864Y361948D01*
X53975Y361950D01*
X50800Y358775D02*
X50802Y358664D01*
X50808Y358554D01*
X50817Y358443D01*
X50831Y358333D01*
X50848Y358224D01*
X50869Y358115D01*
X50894Y358007D01*
X50923Y357900D01*
X50955Y357794D01*
X50991Y357689D01*
X51031Y357586D01*
X51074Y357484D01*
X51121Y357383D01*
X51172Y357284D01*
X51225Y357188D01*
X51282Y357093D01*
X51343Y357000D01*
X51406Y356909D01*
X51473Y356820D01*
X51543Y356734D01*
X51616Y356651D01*
X51691Y356569D01*
X51769Y356491D01*
X51851Y356416D01*
X51934Y356343D01*
X52020Y356273D01*
X52109Y356206D01*
X52200Y356143D01*
X52293Y356082D01*
X52387Y356025D01*
X52484Y355972D01*
X52583Y355921D01*
X52684Y355874D01*
X52786Y355831D01*
X52889Y355791D01*
X52994Y355755D01*
X53100Y355723D01*
X53207Y355694D01*
X53315Y355669D01*
X53424Y355648D01*
X53533Y355631D01*
X53643Y355617D01*
X53754Y355608D01*
X53864Y355602D01*
X53975Y355600D01*
X1042075Y358775D02*
X1042077Y358874D01*
X1042083Y358974D01*
X1042093Y359073D01*
X1042107Y359171D01*
X1042124Y359269D01*
X1042146Y359366D01*
X1042171Y359462D01*
X1042200Y359557D01*
X1042233Y359651D01*
X1042270Y359743D01*
X1042310Y359834D01*
X1042354Y359923D01*
X1042402Y360011D01*
X1042453Y360096D01*
X1042507Y360179D01*
X1042564Y360261D01*
X1042625Y360339D01*
X1042689Y360416D01*
X1042755Y360489D01*
X1042825Y360560D01*
X1042897Y360628D01*
X1042972Y360694D01*
X1043050Y360756D01*
X1043130Y360815D01*
X1043212Y360871D01*
X1043296Y360923D01*
X1043383Y360972D01*
X1043471Y361018D01*
X1043561Y361060D01*
X1043653Y361099D01*
X1043746Y361134D01*
X1043840Y361165D01*
X1043936Y361192D01*
X1044033Y361215D01*
X1044130Y361235D01*
X1044228Y361251D01*
X1044327Y361263D01*
X1044426Y361271D01*
X1044525Y361275D01*
X1044625Y361275D01*
X1044724Y361271D01*
X1044823Y361263D01*
X1044922Y361251D01*
X1045020Y361235D01*
X1045117Y361215D01*
X1045214Y361192D01*
X1045310Y361165D01*
X1045404Y361134D01*
X1045497Y361099D01*
X1045589Y361060D01*
X1045679Y361018D01*
X1045767Y360972D01*
X1045854Y360923D01*
X1045938Y360871D01*
X1046020Y360815D01*
X1046100Y360756D01*
X1046178Y360694D01*
X1046253Y360628D01*
X1046325Y360560D01*
X1046395Y360489D01*
X1046461Y360416D01*
X1046525Y360339D01*
X1046586Y360261D01*
X1046643Y360179D01*
X1046697Y360096D01*
X1046748Y360011D01*
X1046796Y359923D01*
X1046840Y359834D01*
X1046880Y359743D01*
X1046917Y359651D01*
X1046950Y359557D01*
X1046979Y359462D01*
X1047004Y359366D01*
X1047026Y359269D01*
X1047043Y359171D01*
X1047057Y359073D01*
X1047067Y358974D01*
X1047073Y358874D01*
X1047075Y358775D01*
X1047073Y358676D01*
X1047067Y358576D01*
X1047057Y358477D01*
X1047043Y358379D01*
X1047026Y358281D01*
X1047004Y358184D01*
X1046979Y358088D01*
X1046950Y357993D01*
X1046917Y357899D01*
X1046880Y357807D01*
X1046840Y357716D01*
X1046796Y357627D01*
X1046748Y357539D01*
X1046697Y357454D01*
X1046643Y357371D01*
X1046586Y357289D01*
X1046525Y357211D01*
X1046461Y357134D01*
X1046395Y357061D01*
X1046325Y356990D01*
X1046253Y356922D01*
X1046178Y356856D01*
X1046100Y356794D01*
X1046020Y356735D01*
X1045938Y356679D01*
X1045854Y356627D01*
X1045767Y356578D01*
X1045679Y356532D01*
X1045589Y356490D01*
X1045497Y356451D01*
X1045404Y356416D01*
X1045310Y356385D01*
X1045214Y356358D01*
X1045117Y356335D01*
X1045020Y356315D01*
X1044922Y356299D01*
X1044823Y356287D01*
X1044724Y356279D01*
X1044625Y356275D01*
X1044525Y356275D01*
X1044426Y356279D01*
X1044327Y356287D01*
X1044228Y356299D01*
X1044130Y356315D01*
X1044033Y356335D01*
X1043936Y356358D01*
X1043840Y356385D01*
X1043746Y356416D01*
X1043653Y356451D01*
X1043561Y356490D01*
X1043471Y356532D01*
X1043383Y356578D01*
X1043296Y356627D01*
X1043212Y356679D01*
X1043130Y356735D01*
X1043050Y356794D01*
X1042972Y356856D01*
X1042897Y356922D01*
X1042825Y356990D01*
X1042755Y357061D01*
X1042689Y357134D01*
X1042625Y357211D01*
X1042564Y357289D01*
X1042507Y357371D01*
X1042453Y357454D01*
X1042402Y357539D01*
X1042354Y357627D01*
X1042310Y357716D01*
X1042270Y357807D01*
X1042233Y357899D01*
X1042200Y357993D01*
X1042171Y358088D01*
X1042146Y358184D01*
X1042124Y358281D01*
X1042107Y358379D01*
X1042093Y358477D01*
X1042083Y358576D01*
X1042077Y358676D01*
X1042075Y358775D01*
X1035725Y358775D02*
X1035727Y358874D01*
X1035733Y358974D01*
X1035743Y359073D01*
X1035757Y359171D01*
X1035774Y359269D01*
X1035796Y359366D01*
X1035821Y359462D01*
X1035850Y359557D01*
X1035883Y359651D01*
X1035920Y359743D01*
X1035960Y359834D01*
X1036004Y359923D01*
X1036052Y360011D01*
X1036103Y360096D01*
X1036157Y360179D01*
X1036214Y360261D01*
X1036275Y360339D01*
X1036339Y360416D01*
X1036405Y360489D01*
X1036475Y360560D01*
X1036547Y360628D01*
X1036622Y360694D01*
X1036700Y360756D01*
X1036780Y360815D01*
X1036862Y360871D01*
X1036946Y360923D01*
X1037033Y360972D01*
X1037121Y361018D01*
X1037211Y361060D01*
X1037303Y361099D01*
X1037396Y361134D01*
X1037490Y361165D01*
X1037586Y361192D01*
X1037683Y361215D01*
X1037780Y361235D01*
X1037878Y361251D01*
X1037977Y361263D01*
X1038076Y361271D01*
X1038175Y361275D01*
X1038275Y361275D01*
X1038374Y361271D01*
X1038473Y361263D01*
X1038572Y361251D01*
X1038670Y361235D01*
X1038767Y361215D01*
X1038864Y361192D01*
X1038960Y361165D01*
X1039054Y361134D01*
X1039147Y361099D01*
X1039239Y361060D01*
X1039329Y361018D01*
X1039417Y360972D01*
X1039504Y360923D01*
X1039588Y360871D01*
X1039670Y360815D01*
X1039750Y360756D01*
X1039828Y360694D01*
X1039903Y360628D01*
X1039975Y360560D01*
X1040045Y360489D01*
X1040111Y360416D01*
X1040175Y360339D01*
X1040236Y360261D01*
X1040293Y360179D01*
X1040347Y360096D01*
X1040398Y360011D01*
X1040446Y359923D01*
X1040490Y359834D01*
X1040530Y359743D01*
X1040567Y359651D01*
X1040600Y359557D01*
X1040629Y359462D01*
X1040654Y359366D01*
X1040676Y359269D01*
X1040693Y359171D01*
X1040707Y359073D01*
X1040717Y358974D01*
X1040723Y358874D01*
X1040725Y358775D01*
X1040723Y358676D01*
X1040717Y358576D01*
X1040707Y358477D01*
X1040693Y358379D01*
X1040676Y358281D01*
X1040654Y358184D01*
X1040629Y358088D01*
X1040600Y357993D01*
X1040567Y357899D01*
X1040530Y357807D01*
X1040490Y357716D01*
X1040446Y357627D01*
X1040398Y357539D01*
X1040347Y357454D01*
X1040293Y357371D01*
X1040236Y357289D01*
X1040175Y357211D01*
X1040111Y357134D01*
X1040045Y357061D01*
X1039975Y356990D01*
X1039903Y356922D01*
X1039828Y356856D01*
X1039750Y356794D01*
X1039670Y356735D01*
X1039588Y356679D01*
X1039504Y356627D01*
X1039417Y356578D01*
X1039329Y356532D01*
X1039239Y356490D01*
X1039147Y356451D01*
X1039054Y356416D01*
X1038960Y356385D01*
X1038864Y356358D01*
X1038767Y356335D01*
X1038670Y356315D01*
X1038572Y356299D01*
X1038473Y356287D01*
X1038374Y356279D01*
X1038275Y356275D01*
X1038175Y356275D01*
X1038076Y356279D01*
X1037977Y356287D01*
X1037878Y356299D01*
X1037780Y356315D01*
X1037683Y356335D01*
X1037586Y356358D01*
X1037490Y356385D01*
X1037396Y356416D01*
X1037303Y356451D01*
X1037211Y356490D01*
X1037121Y356532D01*
X1037033Y356578D01*
X1036946Y356627D01*
X1036862Y356679D01*
X1036780Y356735D01*
X1036700Y356794D01*
X1036622Y356856D01*
X1036547Y356922D01*
X1036475Y356990D01*
X1036405Y357061D01*
X1036339Y357134D01*
X1036275Y357211D01*
X1036214Y357289D01*
X1036157Y357371D01*
X1036103Y357454D01*
X1036052Y357539D01*
X1036004Y357627D01*
X1035960Y357716D01*
X1035920Y357807D01*
X1035883Y357899D01*
X1035850Y357993D01*
X1035821Y358088D01*
X1035796Y358184D01*
X1035774Y358281D01*
X1035757Y358379D01*
X1035743Y358477D01*
X1035733Y358576D01*
X1035727Y358676D01*
X1035725Y358775D01*
X1029375Y358775D02*
X1029377Y358874D01*
X1029383Y358974D01*
X1029393Y359073D01*
X1029407Y359171D01*
X1029424Y359269D01*
X1029446Y359366D01*
X1029471Y359462D01*
X1029500Y359557D01*
X1029533Y359651D01*
X1029570Y359743D01*
X1029610Y359834D01*
X1029654Y359923D01*
X1029702Y360011D01*
X1029753Y360096D01*
X1029807Y360179D01*
X1029864Y360261D01*
X1029925Y360339D01*
X1029989Y360416D01*
X1030055Y360489D01*
X1030125Y360560D01*
X1030197Y360628D01*
X1030272Y360694D01*
X1030350Y360756D01*
X1030430Y360815D01*
X1030512Y360871D01*
X1030596Y360923D01*
X1030683Y360972D01*
X1030771Y361018D01*
X1030861Y361060D01*
X1030953Y361099D01*
X1031046Y361134D01*
X1031140Y361165D01*
X1031236Y361192D01*
X1031333Y361215D01*
X1031430Y361235D01*
X1031528Y361251D01*
X1031627Y361263D01*
X1031726Y361271D01*
X1031825Y361275D01*
X1031925Y361275D01*
X1032024Y361271D01*
X1032123Y361263D01*
X1032222Y361251D01*
X1032320Y361235D01*
X1032417Y361215D01*
X1032514Y361192D01*
X1032610Y361165D01*
X1032704Y361134D01*
X1032797Y361099D01*
X1032889Y361060D01*
X1032979Y361018D01*
X1033067Y360972D01*
X1033154Y360923D01*
X1033238Y360871D01*
X1033320Y360815D01*
X1033400Y360756D01*
X1033478Y360694D01*
X1033553Y360628D01*
X1033625Y360560D01*
X1033695Y360489D01*
X1033761Y360416D01*
X1033825Y360339D01*
X1033886Y360261D01*
X1033943Y360179D01*
X1033997Y360096D01*
X1034048Y360011D01*
X1034096Y359923D01*
X1034140Y359834D01*
X1034180Y359743D01*
X1034217Y359651D01*
X1034250Y359557D01*
X1034279Y359462D01*
X1034304Y359366D01*
X1034326Y359269D01*
X1034343Y359171D01*
X1034357Y359073D01*
X1034367Y358974D01*
X1034373Y358874D01*
X1034375Y358775D01*
X1034373Y358676D01*
X1034367Y358576D01*
X1034357Y358477D01*
X1034343Y358379D01*
X1034326Y358281D01*
X1034304Y358184D01*
X1034279Y358088D01*
X1034250Y357993D01*
X1034217Y357899D01*
X1034180Y357807D01*
X1034140Y357716D01*
X1034096Y357627D01*
X1034048Y357539D01*
X1033997Y357454D01*
X1033943Y357371D01*
X1033886Y357289D01*
X1033825Y357211D01*
X1033761Y357134D01*
X1033695Y357061D01*
X1033625Y356990D01*
X1033553Y356922D01*
X1033478Y356856D01*
X1033400Y356794D01*
X1033320Y356735D01*
X1033238Y356679D01*
X1033154Y356627D01*
X1033067Y356578D01*
X1032979Y356532D01*
X1032889Y356490D01*
X1032797Y356451D01*
X1032704Y356416D01*
X1032610Y356385D01*
X1032514Y356358D01*
X1032417Y356335D01*
X1032320Y356315D01*
X1032222Y356299D01*
X1032123Y356287D01*
X1032024Y356279D01*
X1031925Y356275D01*
X1031825Y356275D01*
X1031726Y356279D01*
X1031627Y356287D01*
X1031528Y356299D01*
X1031430Y356315D01*
X1031333Y356335D01*
X1031236Y356358D01*
X1031140Y356385D01*
X1031046Y356416D01*
X1030953Y356451D01*
X1030861Y356490D01*
X1030771Y356532D01*
X1030683Y356578D01*
X1030596Y356627D01*
X1030512Y356679D01*
X1030430Y356735D01*
X1030350Y356794D01*
X1030272Y356856D01*
X1030197Y356922D01*
X1030125Y356990D01*
X1030055Y357061D01*
X1029989Y357134D01*
X1029925Y357211D01*
X1029864Y357289D01*
X1029807Y357371D01*
X1029753Y357454D01*
X1029702Y357539D01*
X1029654Y357627D01*
X1029610Y357716D01*
X1029570Y357807D01*
X1029533Y357899D01*
X1029500Y357993D01*
X1029471Y358088D01*
X1029446Y358184D01*
X1029424Y358281D01*
X1029407Y358379D01*
X1029393Y358477D01*
X1029383Y358576D01*
X1029377Y358676D01*
X1029375Y358775D01*
X1028700Y358775D02*
X1028698Y358886D01*
X1028692Y358996D01*
X1028683Y359107D01*
X1028669Y359217D01*
X1028652Y359326D01*
X1028631Y359435D01*
X1028606Y359543D01*
X1028577Y359650D01*
X1028545Y359756D01*
X1028509Y359861D01*
X1028469Y359964D01*
X1028426Y360066D01*
X1028379Y360167D01*
X1028328Y360266D01*
X1028275Y360363D01*
X1028218Y360457D01*
X1028157Y360550D01*
X1028094Y360641D01*
X1028027Y360730D01*
X1027957Y360816D01*
X1027884Y360899D01*
X1027809Y360981D01*
X1027731Y361059D01*
X1027649Y361134D01*
X1027566Y361207D01*
X1027480Y361277D01*
X1027391Y361344D01*
X1027300Y361407D01*
X1027207Y361468D01*
X1027113Y361525D01*
X1027016Y361578D01*
X1026917Y361629D01*
X1026816Y361676D01*
X1026714Y361719D01*
X1026611Y361759D01*
X1026506Y361795D01*
X1026400Y361827D01*
X1026293Y361856D01*
X1026185Y361881D01*
X1026076Y361902D01*
X1025967Y361919D01*
X1025857Y361933D01*
X1025746Y361942D01*
X1025636Y361948D01*
X1025525Y361950D01*
X1028700Y358775D02*
X1028698Y358664D01*
X1028692Y358554D01*
X1028683Y358443D01*
X1028669Y358333D01*
X1028652Y358224D01*
X1028631Y358115D01*
X1028606Y358007D01*
X1028577Y357900D01*
X1028545Y357794D01*
X1028509Y357689D01*
X1028469Y357586D01*
X1028426Y357484D01*
X1028379Y357383D01*
X1028328Y357284D01*
X1028275Y357187D01*
X1028218Y357093D01*
X1028157Y357000D01*
X1028094Y356909D01*
X1028027Y356820D01*
X1027957Y356734D01*
X1027884Y356651D01*
X1027809Y356569D01*
X1027731Y356491D01*
X1027649Y356416D01*
X1027566Y356343D01*
X1027480Y356273D01*
X1027391Y356206D01*
X1027300Y356143D01*
X1027207Y356082D01*
X1027113Y356025D01*
X1027016Y355972D01*
X1026917Y355921D01*
X1026816Y355874D01*
X1026714Y355831D01*
X1026611Y355791D01*
X1026506Y355755D01*
X1026400Y355723D01*
X1026293Y355694D01*
X1026185Y355669D01*
X1026076Y355648D01*
X1025967Y355631D01*
X1025857Y355617D01*
X1025746Y355608D01*
X1025636Y355602D01*
X1025525Y355600D01*
X1047750Y358775D02*
X1047752Y358886D01*
X1047758Y358996D01*
X1047767Y359107D01*
X1047781Y359217D01*
X1047798Y359326D01*
X1047819Y359435D01*
X1047844Y359543D01*
X1047873Y359650D01*
X1047905Y359756D01*
X1047941Y359861D01*
X1047981Y359964D01*
X1048024Y360066D01*
X1048071Y360167D01*
X1048122Y360266D01*
X1048175Y360363D01*
X1048232Y360457D01*
X1048293Y360550D01*
X1048356Y360641D01*
X1048423Y360730D01*
X1048493Y360816D01*
X1048566Y360899D01*
X1048641Y360981D01*
X1048719Y361059D01*
X1048801Y361134D01*
X1048884Y361207D01*
X1048970Y361277D01*
X1049059Y361344D01*
X1049150Y361407D01*
X1049243Y361468D01*
X1049338Y361525D01*
X1049434Y361578D01*
X1049533Y361629D01*
X1049634Y361676D01*
X1049736Y361719D01*
X1049839Y361759D01*
X1049944Y361795D01*
X1050050Y361827D01*
X1050157Y361856D01*
X1050265Y361881D01*
X1050374Y361902D01*
X1050483Y361919D01*
X1050593Y361933D01*
X1050704Y361942D01*
X1050814Y361948D01*
X1050925Y361950D01*
X1047750Y358775D02*
X1047752Y358664D01*
X1047758Y358554D01*
X1047767Y358443D01*
X1047781Y358333D01*
X1047798Y358224D01*
X1047819Y358115D01*
X1047844Y358007D01*
X1047873Y357900D01*
X1047905Y357794D01*
X1047941Y357689D01*
X1047981Y357586D01*
X1048024Y357484D01*
X1048071Y357383D01*
X1048122Y357284D01*
X1048175Y357188D01*
X1048232Y357093D01*
X1048293Y357000D01*
X1048356Y356909D01*
X1048423Y356820D01*
X1048493Y356734D01*
X1048566Y356651D01*
X1048641Y356569D01*
X1048719Y356491D01*
X1048801Y356416D01*
X1048884Y356343D01*
X1048970Y356273D01*
X1049059Y356206D01*
X1049150Y356143D01*
X1049243Y356082D01*
X1049338Y356025D01*
X1049434Y355972D01*
X1049533Y355921D01*
X1049634Y355874D01*
X1049736Y355831D01*
X1049839Y355791D01*
X1049944Y355755D01*
X1050050Y355723D01*
X1050157Y355694D01*
X1050265Y355669D01*
X1050374Y355648D01*
X1050483Y355631D01*
X1050593Y355617D01*
X1050704Y355608D01*
X1050814Y355602D01*
X1050925Y355600D01*
X530900Y358775D02*
X530902Y358874D01*
X530908Y358974D01*
X530918Y359073D01*
X530932Y359171D01*
X530949Y359269D01*
X530971Y359366D01*
X530996Y359462D01*
X531025Y359557D01*
X531058Y359651D01*
X531095Y359743D01*
X531135Y359834D01*
X531179Y359923D01*
X531227Y360011D01*
X531278Y360096D01*
X531332Y360179D01*
X531389Y360261D01*
X531450Y360339D01*
X531514Y360416D01*
X531580Y360489D01*
X531650Y360560D01*
X531722Y360628D01*
X531797Y360694D01*
X531875Y360756D01*
X531955Y360815D01*
X532037Y360871D01*
X532121Y360923D01*
X532208Y360972D01*
X532296Y361018D01*
X532386Y361060D01*
X532478Y361099D01*
X532571Y361134D01*
X532665Y361165D01*
X532761Y361192D01*
X532858Y361215D01*
X532955Y361235D01*
X533053Y361251D01*
X533152Y361263D01*
X533251Y361271D01*
X533350Y361275D01*
X533450Y361275D01*
X533549Y361271D01*
X533648Y361263D01*
X533747Y361251D01*
X533845Y361235D01*
X533942Y361215D01*
X534039Y361192D01*
X534135Y361165D01*
X534229Y361134D01*
X534322Y361099D01*
X534414Y361060D01*
X534504Y361018D01*
X534592Y360972D01*
X534679Y360923D01*
X534763Y360871D01*
X534845Y360815D01*
X534925Y360756D01*
X535003Y360694D01*
X535078Y360628D01*
X535150Y360560D01*
X535220Y360489D01*
X535286Y360416D01*
X535350Y360339D01*
X535411Y360261D01*
X535468Y360179D01*
X535522Y360096D01*
X535573Y360011D01*
X535621Y359923D01*
X535665Y359834D01*
X535705Y359743D01*
X535742Y359651D01*
X535775Y359557D01*
X535804Y359462D01*
X535829Y359366D01*
X535851Y359269D01*
X535868Y359171D01*
X535882Y359073D01*
X535892Y358974D01*
X535898Y358874D01*
X535900Y358775D01*
X535898Y358676D01*
X535892Y358576D01*
X535882Y358477D01*
X535868Y358379D01*
X535851Y358281D01*
X535829Y358184D01*
X535804Y358088D01*
X535775Y357993D01*
X535742Y357899D01*
X535705Y357807D01*
X535665Y357716D01*
X535621Y357627D01*
X535573Y357539D01*
X535522Y357454D01*
X535468Y357371D01*
X535411Y357289D01*
X535350Y357211D01*
X535286Y357134D01*
X535220Y357061D01*
X535150Y356990D01*
X535078Y356922D01*
X535003Y356856D01*
X534925Y356794D01*
X534845Y356735D01*
X534763Y356679D01*
X534679Y356627D01*
X534592Y356578D01*
X534504Y356532D01*
X534414Y356490D01*
X534322Y356451D01*
X534229Y356416D01*
X534135Y356385D01*
X534039Y356358D01*
X533942Y356335D01*
X533845Y356315D01*
X533747Y356299D01*
X533648Y356287D01*
X533549Y356279D01*
X533450Y356275D01*
X533350Y356275D01*
X533251Y356279D01*
X533152Y356287D01*
X533053Y356299D01*
X532955Y356315D01*
X532858Y356335D01*
X532761Y356358D01*
X532665Y356385D01*
X532571Y356416D01*
X532478Y356451D01*
X532386Y356490D01*
X532296Y356532D01*
X532208Y356578D01*
X532121Y356627D01*
X532037Y356679D01*
X531955Y356735D01*
X531875Y356794D01*
X531797Y356856D01*
X531722Y356922D01*
X531650Y356990D01*
X531580Y357061D01*
X531514Y357134D01*
X531450Y357211D01*
X531389Y357289D01*
X531332Y357371D01*
X531278Y357454D01*
X531227Y357539D01*
X531179Y357627D01*
X531135Y357716D01*
X531095Y357807D01*
X531058Y357899D01*
X531025Y357993D01*
X530996Y358088D01*
X530971Y358184D01*
X530949Y358281D01*
X530932Y358379D01*
X530918Y358477D01*
X530908Y358576D01*
X530902Y358676D01*
X530900Y358775D01*
X537250Y358775D02*
X537252Y358874D01*
X537258Y358974D01*
X537268Y359073D01*
X537282Y359171D01*
X537299Y359269D01*
X537321Y359366D01*
X537346Y359462D01*
X537375Y359557D01*
X537408Y359651D01*
X537445Y359743D01*
X537485Y359834D01*
X537529Y359923D01*
X537577Y360011D01*
X537628Y360096D01*
X537682Y360179D01*
X537739Y360261D01*
X537800Y360339D01*
X537864Y360416D01*
X537930Y360489D01*
X538000Y360560D01*
X538072Y360628D01*
X538147Y360694D01*
X538225Y360756D01*
X538305Y360815D01*
X538387Y360871D01*
X538471Y360923D01*
X538558Y360972D01*
X538646Y361018D01*
X538736Y361060D01*
X538828Y361099D01*
X538921Y361134D01*
X539015Y361165D01*
X539111Y361192D01*
X539208Y361215D01*
X539305Y361235D01*
X539403Y361251D01*
X539502Y361263D01*
X539601Y361271D01*
X539700Y361275D01*
X539800Y361275D01*
X539899Y361271D01*
X539998Y361263D01*
X540097Y361251D01*
X540195Y361235D01*
X540292Y361215D01*
X540389Y361192D01*
X540485Y361165D01*
X540579Y361134D01*
X540672Y361099D01*
X540764Y361060D01*
X540854Y361018D01*
X540942Y360972D01*
X541029Y360923D01*
X541113Y360871D01*
X541195Y360815D01*
X541275Y360756D01*
X541353Y360694D01*
X541428Y360628D01*
X541500Y360560D01*
X541570Y360489D01*
X541636Y360416D01*
X541700Y360339D01*
X541761Y360261D01*
X541818Y360179D01*
X541872Y360096D01*
X541923Y360011D01*
X541971Y359923D01*
X542015Y359834D01*
X542055Y359743D01*
X542092Y359651D01*
X542125Y359557D01*
X542154Y359462D01*
X542179Y359366D01*
X542201Y359269D01*
X542218Y359171D01*
X542232Y359073D01*
X542242Y358974D01*
X542248Y358874D01*
X542250Y358775D01*
X542248Y358676D01*
X542242Y358576D01*
X542232Y358477D01*
X542218Y358379D01*
X542201Y358281D01*
X542179Y358184D01*
X542154Y358088D01*
X542125Y357993D01*
X542092Y357899D01*
X542055Y357807D01*
X542015Y357716D01*
X541971Y357627D01*
X541923Y357539D01*
X541872Y357454D01*
X541818Y357371D01*
X541761Y357289D01*
X541700Y357211D01*
X541636Y357134D01*
X541570Y357061D01*
X541500Y356990D01*
X541428Y356922D01*
X541353Y356856D01*
X541275Y356794D01*
X541195Y356735D01*
X541113Y356679D01*
X541029Y356627D01*
X540942Y356578D01*
X540854Y356532D01*
X540764Y356490D01*
X540672Y356451D01*
X540579Y356416D01*
X540485Y356385D01*
X540389Y356358D01*
X540292Y356335D01*
X540195Y356315D01*
X540097Y356299D01*
X539998Y356287D01*
X539899Y356279D01*
X539800Y356275D01*
X539700Y356275D01*
X539601Y356279D01*
X539502Y356287D01*
X539403Y356299D01*
X539305Y356315D01*
X539208Y356335D01*
X539111Y356358D01*
X539015Y356385D01*
X538921Y356416D01*
X538828Y356451D01*
X538736Y356490D01*
X538646Y356532D01*
X538558Y356578D01*
X538471Y356627D01*
X538387Y356679D01*
X538305Y356735D01*
X538225Y356794D01*
X538147Y356856D01*
X538072Y356922D01*
X538000Y356990D01*
X537930Y357061D01*
X537864Y357134D01*
X537800Y357211D01*
X537739Y357289D01*
X537682Y357371D01*
X537628Y357454D01*
X537577Y357539D01*
X537529Y357627D01*
X537485Y357716D01*
X537445Y357807D01*
X537408Y357899D01*
X537375Y357993D01*
X537346Y358088D01*
X537321Y358184D01*
X537299Y358281D01*
X537282Y358379D01*
X537268Y358477D01*
X537258Y358576D01*
X537252Y358676D01*
X537250Y358775D01*
X543600Y358775D02*
X543602Y358874D01*
X543608Y358974D01*
X543618Y359073D01*
X543632Y359171D01*
X543649Y359269D01*
X543671Y359366D01*
X543696Y359462D01*
X543725Y359557D01*
X543758Y359651D01*
X543795Y359743D01*
X543835Y359834D01*
X543879Y359923D01*
X543927Y360011D01*
X543978Y360096D01*
X544032Y360179D01*
X544089Y360261D01*
X544150Y360339D01*
X544214Y360416D01*
X544280Y360489D01*
X544350Y360560D01*
X544422Y360628D01*
X544497Y360694D01*
X544575Y360756D01*
X544655Y360815D01*
X544737Y360871D01*
X544821Y360923D01*
X544908Y360972D01*
X544996Y361018D01*
X545086Y361060D01*
X545178Y361099D01*
X545271Y361134D01*
X545365Y361165D01*
X545461Y361192D01*
X545558Y361215D01*
X545655Y361235D01*
X545753Y361251D01*
X545852Y361263D01*
X545951Y361271D01*
X546050Y361275D01*
X546150Y361275D01*
X546249Y361271D01*
X546348Y361263D01*
X546447Y361251D01*
X546545Y361235D01*
X546642Y361215D01*
X546739Y361192D01*
X546835Y361165D01*
X546929Y361134D01*
X547022Y361099D01*
X547114Y361060D01*
X547204Y361018D01*
X547292Y360972D01*
X547379Y360923D01*
X547463Y360871D01*
X547545Y360815D01*
X547625Y360756D01*
X547703Y360694D01*
X547778Y360628D01*
X547850Y360560D01*
X547920Y360489D01*
X547986Y360416D01*
X548050Y360339D01*
X548111Y360261D01*
X548168Y360179D01*
X548222Y360096D01*
X548273Y360011D01*
X548321Y359923D01*
X548365Y359834D01*
X548405Y359743D01*
X548442Y359651D01*
X548475Y359557D01*
X548504Y359462D01*
X548529Y359366D01*
X548551Y359269D01*
X548568Y359171D01*
X548582Y359073D01*
X548592Y358974D01*
X548598Y358874D01*
X548600Y358775D01*
X548598Y358676D01*
X548592Y358576D01*
X548582Y358477D01*
X548568Y358379D01*
X548551Y358281D01*
X548529Y358184D01*
X548504Y358088D01*
X548475Y357993D01*
X548442Y357899D01*
X548405Y357807D01*
X548365Y357716D01*
X548321Y357627D01*
X548273Y357539D01*
X548222Y357454D01*
X548168Y357371D01*
X548111Y357289D01*
X548050Y357211D01*
X547986Y357134D01*
X547920Y357061D01*
X547850Y356990D01*
X547778Y356922D01*
X547703Y356856D01*
X547625Y356794D01*
X547545Y356735D01*
X547463Y356679D01*
X547379Y356627D01*
X547292Y356578D01*
X547204Y356532D01*
X547114Y356490D01*
X547022Y356451D01*
X546929Y356416D01*
X546835Y356385D01*
X546739Y356358D01*
X546642Y356335D01*
X546545Y356315D01*
X546447Y356299D01*
X546348Y356287D01*
X546249Y356279D01*
X546150Y356275D01*
X546050Y356275D01*
X545951Y356279D01*
X545852Y356287D01*
X545753Y356299D01*
X545655Y356315D01*
X545558Y356335D01*
X545461Y356358D01*
X545365Y356385D01*
X545271Y356416D01*
X545178Y356451D01*
X545086Y356490D01*
X544996Y356532D01*
X544908Y356578D01*
X544821Y356627D01*
X544737Y356679D01*
X544655Y356735D01*
X544575Y356794D01*
X544497Y356856D01*
X544422Y356922D01*
X544350Y356990D01*
X544280Y357061D01*
X544214Y357134D01*
X544150Y357211D01*
X544089Y357289D01*
X544032Y357371D01*
X543978Y357454D01*
X543927Y357539D01*
X543879Y357627D01*
X543835Y357716D01*
X543795Y357807D01*
X543758Y357899D01*
X543725Y357993D01*
X543696Y358088D01*
X543671Y358184D01*
X543649Y358281D01*
X543632Y358379D01*
X543618Y358477D01*
X543608Y358576D01*
X543602Y358676D01*
X543600Y358775D01*
X530225Y358775D02*
X530223Y358886D01*
X530217Y358996D01*
X530208Y359107D01*
X530194Y359217D01*
X530177Y359326D01*
X530156Y359435D01*
X530131Y359543D01*
X530102Y359650D01*
X530070Y359756D01*
X530034Y359861D01*
X529994Y359964D01*
X529951Y360066D01*
X529904Y360167D01*
X529853Y360266D01*
X529800Y360363D01*
X529743Y360457D01*
X529682Y360550D01*
X529619Y360641D01*
X529552Y360730D01*
X529482Y360816D01*
X529409Y360899D01*
X529334Y360981D01*
X529256Y361059D01*
X529174Y361134D01*
X529091Y361207D01*
X529005Y361277D01*
X528916Y361344D01*
X528825Y361407D01*
X528732Y361468D01*
X528638Y361525D01*
X528541Y361578D01*
X528442Y361629D01*
X528341Y361676D01*
X528239Y361719D01*
X528136Y361759D01*
X528031Y361795D01*
X527925Y361827D01*
X527818Y361856D01*
X527710Y361881D01*
X527601Y361902D01*
X527492Y361919D01*
X527382Y361933D01*
X527271Y361942D01*
X527161Y361948D01*
X527050Y361950D01*
X530225Y358775D02*
X530223Y358664D01*
X530217Y358554D01*
X530208Y358443D01*
X530194Y358333D01*
X530177Y358224D01*
X530156Y358115D01*
X530131Y358007D01*
X530102Y357900D01*
X530070Y357794D01*
X530034Y357689D01*
X529994Y357586D01*
X529951Y357484D01*
X529904Y357383D01*
X529853Y357284D01*
X529800Y357187D01*
X529743Y357093D01*
X529682Y357000D01*
X529619Y356909D01*
X529552Y356820D01*
X529482Y356734D01*
X529409Y356651D01*
X529334Y356569D01*
X529256Y356491D01*
X529174Y356416D01*
X529091Y356343D01*
X529005Y356273D01*
X528916Y356206D01*
X528825Y356143D01*
X528732Y356082D01*
X528638Y356025D01*
X528541Y355972D01*
X528442Y355921D01*
X528341Y355874D01*
X528239Y355831D01*
X528136Y355791D01*
X528031Y355755D01*
X527925Y355723D01*
X527818Y355694D01*
X527710Y355669D01*
X527601Y355648D01*
X527492Y355631D01*
X527382Y355617D01*
X527271Y355608D01*
X527161Y355602D01*
X527050Y355600D01*
X549275Y358775D02*
X549277Y358886D01*
X549283Y358996D01*
X549292Y359107D01*
X549306Y359217D01*
X549323Y359326D01*
X549344Y359435D01*
X549369Y359543D01*
X549398Y359650D01*
X549430Y359756D01*
X549466Y359861D01*
X549506Y359964D01*
X549549Y360066D01*
X549596Y360167D01*
X549647Y360266D01*
X549700Y360363D01*
X549757Y360457D01*
X549818Y360550D01*
X549881Y360641D01*
X549948Y360730D01*
X550018Y360816D01*
X550091Y360899D01*
X550166Y360981D01*
X550244Y361059D01*
X550326Y361134D01*
X550409Y361207D01*
X550495Y361277D01*
X550584Y361344D01*
X550675Y361407D01*
X550768Y361468D01*
X550863Y361525D01*
X550959Y361578D01*
X551058Y361629D01*
X551159Y361676D01*
X551261Y361719D01*
X551364Y361759D01*
X551469Y361795D01*
X551575Y361827D01*
X551682Y361856D01*
X551790Y361881D01*
X551899Y361902D01*
X552008Y361919D01*
X552118Y361933D01*
X552229Y361942D01*
X552339Y361948D01*
X552450Y361950D01*
X549275Y358775D02*
X549277Y358664D01*
X549283Y358554D01*
X549292Y358443D01*
X549306Y358333D01*
X549323Y358224D01*
X549344Y358115D01*
X549369Y358007D01*
X549398Y357900D01*
X549430Y357794D01*
X549466Y357689D01*
X549506Y357586D01*
X549549Y357484D01*
X549596Y357383D01*
X549647Y357284D01*
X549700Y357188D01*
X549757Y357093D01*
X549818Y357000D01*
X549881Y356909D01*
X549948Y356820D01*
X550018Y356734D01*
X550091Y356651D01*
X550166Y356569D01*
X550244Y356491D01*
X550326Y356416D01*
X550409Y356343D01*
X550495Y356273D01*
X550584Y356206D01*
X550675Y356143D01*
X550768Y356082D01*
X550863Y356025D01*
X550959Y355972D01*
X551058Y355921D01*
X551159Y355874D01*
X551261Y355831D01*
X551364Y355791D01*
X551469Y355755D01*
X551575Y355723D01*
X551682Y355694D01*
X551790Y355669D01*
X551899Y355648D01*
X552008Y355631D01*
X552118Y355617D01*
X552229Y355608D01*
X552339Y355602D01*
X552450Y355600D01*
D11*
X984800Y326400D02*
X1009800Y326400D01*
X970300Y291900D02*
X970300Y266900D01*
X987300Y232400D02*
X1007300Y232400D01*
X1051300Y266900D02*
X1051300Y291900D01*
X692300Y326400D02*
X667300Y326400D01*
X652800Y291900D02*
X652800Y266900D01*
X669800Y232400D02*
X689800Y232400D01*
X733800Y266900D02*
X733800Y291900D01*
X197000Y326400D02*
X172000Y326400D01*
X157500Y291900D02*
X157500Y266900D01*
X174500Y232400D02*
X194500Y232400D01*
X238500Y266900D02*
X238500Y291900D01*
X70000Y326400D02*
X45000Y326400D01*
X30500Y291900D02*
X30500Y266900D01*
X47500Y232400D02*
X67500Y232400D01*
X111500Y266900D02*
X111500Y291900D01*
X984800Y123200D02*
X1009800Y123200D01*
X970300Y88700D02*
X970300Y63700D01*
X987300Y29200D02*
X1007300Y29200D01*
X1051300Y63700D02*
X1051300Y88700D01*
X692300Y123200D02*
X667300Y123200D01*
X652800Y88700D02*
X652800Y63700D01*
X669800Y29200D02*
X689800Y29200D01*
X733800Y63700D02*
X733800Y88700D01*
X197000Y123200D02*
X172000Y123200D01*
X157500Y88700D02*
X157500Y63700D01*
X174500Y29200D02*
X194500Y29200D01*
X238500Y63700D02*
X238500Y88700D01*
X70000Y123200D02*
X45000Y123200D01*
X30500Y88700D02*
X30500Y63700D01*
X47500Y29200D02*
X67500Y29200D01*
X111500Y63700D02*
X111500Y88700D01*
D12*
X0Y0D02*
X1079500Y0D01*
X1079500Y355600D01*
X1050925Y355600D01*
X1050648Y355612D01*
X1050374Y355648D01*
X1050103Y355708D01*
X1049839Y355791D01*
X1049583Y355897D01*
X1049338Y356025D01*
X1049104Y356174D01*
X1048884Y356343D01*
X1048680Y356530D01*
X1048493Y356734D01*
X1048324Y356954D01*
X1048175Y357188D01*
X1048047Y357433D01*
X1047941Y357689D01*
X1047858Y357953D01*
X1047798Y358224D01*
X1047762Y358498D01*
X1047750Y358775D01*
X1047762Y359052D01*
X1047798Y359326D01*
X1047858Y359597D01*
X1047941Y359861D01*
X1048047Y360117D01*
X1048175Y360363D01*
X1048324Y360596D01*
X1048493Y360816D01*
X1048680Y361020D01*
X1048884Y361207D01*
X1049104Y361376D01*
X1049338Y361525D01*
X1049583Y361653D01*
X1049839Y361759D01*
X1050103Y361842D01*
X1050374Y361902D01*
X1050648Y361938D01*
X1050925Y361950D01*
X1079500Y361950D01*
X1079500Y717550D01*
X0Y717550D01*
X0Y361950D01*
X28575Y361950D01*
X28852Y361938D01*
X29126Y361902D01*
X29397Y361842D01*
X29661Y361759D01*
X29917Y361653D01*
X30163Y361525D01*
X30396Y361376D01*
X30616Y361207D01*
X30820Y361020D01*
X31007Y360816D01*
X31176Y360596D01*
X31325Y360363D01*
X31453Y360117D01*
X31559Y359861D01*
X31642Y359597D01*
X31702Y359326D01*
X31738Y359052D01*
X31750Y358775D01*
X31738Y358498D01*
X31702Y358224D01*
X31642Y357953D01*
X31559Y357689D01*
X31453Y357433D01*
X31325Y357188D01*
X31176Y356954D01*
X31007Y356734D01*
X30820Y356530D01*
X30616Y356343D01*
X30396Y356174D01*
X30163Y356025D01*
X29917Y355897D01*
X29661Y355791D01*
X29397Y355708D01*
X29126Y355648D01*
X28852Y355612D01*
X28575Y355600D01*
X0Y355600D01*
X0Y0D01*
X549275Y358775D02*
X549287Y358498D01*
X549323Y358224D01*
X549383Y357953D01*
X549466Y357689D01*
X549572Y357433D01*
X549700Y357188D01*
X549849Y356954D01*
X550018Y356734D01*
X550205Y356530D01*
X550409Y356343D01*
X550629Y356174D01*
X550863Y356025D01*
X551108Y355897D01*
X551364Y355791D01*
X551628Y355708D01*
X551899Y355648D01*
X552173Y355612D01*
X552450Y355600D01*
X1025525Y355600D01*
X1025802Y355612D01*
X1026076Y355648D01*
X1026347Y355708D01*
X1026611Y355791D01*
X1026867Y355897D01*
X1027113Y356025D01*
X1027346Y356174D01*
X1027566Y356343D01*
X1027770Y356530D01*
X1027957Y356734D01*
X1028126Y356954D01*
X1028275Y357188D01*
X1028403Y357433D01*
X1028509Y357689D01*
X1028592Y357953D01*
X1028652Y358224D01*
X1028688Y358498D01*
X1028700Y358775D01*
X1028688Y359052D01*
X1028652Y359326D01*
X1028592Y359597D01*
X1028509Y359861D01*
X1028403Y360117D01*
X1028275Y360363D01*
X1028126Y360596D01*
X1027957Y360816D01*
X1027770Y361020D01*
X1027566Y361207D01*
X1027346Y361376D01*
X1027113Y361525D01*
X1026867Y361653D01*
X1026611Y361759D01*
X1026347Y361842D01*
X1026076Y361902D01*
X1025802Y361938D01*
X1025525Y361950D01*
X552450Y361950D01*
X552173Y361938D01*
X551899Y361902D01*
X551628Y361842D01*
X551364Y361759D01*
X551108Y361653D01*
X550863Y361525D01*
X550629Y361376D01*
X550409Y361207D01*
X550205Y361020D01*
X550018Y360816D01*
X549849Y360596D01*
X549700Y360363D01*
X549572Y360117D01*
X549466Y359861D01*
X549383Y359597D01*
X549323Y359326D01*
X549287Y359052D01*
X549275Y358775D01*
X50800Y358775D02*
X50812Y358498D01*
X50848Y358224D01*
X50908Y357953D01*
X50991Y357689D01*
X51097Y357433D01*
X51225Y357188D01*
X51374Y356954D01*
X51543Y356734D01*
X51730Y356530D01*
X51934Y356343D01*
X52154Y356174D01*
X52388Y356025D01*
X52633Y355897D01*
X52889Y355791D01*
X53153Y355708D01*
X53424Y355648D01*
X53698Y355612D01*
X53975Y355600D01*
X527050Y355600D01*
X527327Y355612D01*
X527601Y355648D01*
X527872Y355708D01*
X528136Y355791D01*
X528392Y355897D01*
X528638Y356025D01*
X528871Y356174D01*
X529091Y356343D01*
X529295Y356530D01*
X529482Y356734D01*
X529651Y356954D01*
X529800Y357188D01*
X529928Y357433D01*
X530034Y357689D01*
X530117Y357953D01*
X530177Y358224D01*
X530213Y358498D01*
X530225Y358775D01*
X530213Y359052D01*
X530177Y359326D01*
X530117Y359597D01*
X530034Y359861D01*
X529928Y360117D01*
X529800Y360363D01*
X529651Y360596D01*
X529482Y360816D01*
X529295Y361020D01*
X529091Y361207D01*
X528871Y361376D01*
X528638Y361525D01*
X528392Y361653D01*
X528136Y361759D01*
X527872Y361842D01*
X527601Y361902D01*
X527327Y361938D01*
X527050Y361950D01*
X53975Y361950D01*
X53698Y361938D01*
X53424Y361902D01*
X53153Y361842D01*
X52889Y361759D01*
X52633Y361653D01*
X52388Y361525D01*
X52154Y361376D01*
X51934Y361207D01*
X51730Y361020D01*
X51543Y360816D01*
X51374Y360596D01*
X51225Y360363D01*
X51097Y360117D01*
X50991Y359861D01*
X50908Y359597D01*
X50848Y359326D01*
X50812Y359052D01*
X50800Y358775D01*
X1051116Y177274D02*
X1051047Y176224D01*
X1050909Y175182D01*
X1050704Y174150D01*
X1050432Y173134D01*
X1050094Y172138D01*
X1049691Y171166D01*
X1049226Y170223D01*
X1048700Y169312D01*
X1048116Y168437D01*
X1047475Y167603D01*
X1046782Y166812D01*
X1046038Y166068D01*
X1045247Y165375D01*
X1044413Y164734D01*
X1043538Y164150D01*
X1042627Y163624D01*
X1041684Y163159D01*
X1040712Y162756D01*
X1039716Y162418D01*
X1038700Y162146D01*
X1037668Y161941D01*
X1036626Y161803D01*
X1035576Y161735D01*
X1034524Y161735D01*
X1033474Y161803D01*
X1032432Y161941D01*
X1031400Y162146D01*
X1030384Y162418D01*
X1029388Y162756D01*
X1028416Y163159D01*
X1027473Y163624D01*
X1026562Y164150D01*
X1025687Y164734D01*
X1024853Y165375D01*
X1024062Y166068D01*
X1023318Y166812D01*
X1022625Y167603D01*
X1021984Y168437D01*
X1021400Y169312D01*
X1020874Y170223D01*
X1020409Y171166D01*
X1020006Y172138D01*
X1019668Y173134D01*
X1019396Y174150D01*
X1019191Y175182D01*
X1019053Y176224D01*
X1018985Y177274D01*
X1018985Y178326D01*
X1019053Y179376D01*
X1019191Y180418D01*
X1019396Y181450D01*
X1019668Y182466D01*
X1020006Y183462D01*
X1020409Y184434D01*
X1020874Y185377D01*
X1021400Y186288D01*
X1021984Y187163D01*
X1022625Y187997D01*
X1023318Y188788D01*
X1024062Y189532D01*
X1024853Y190225D01*
X1025687Y190866D01*
X1026562Y191450D01*
X1027473Y191976D01*
X1028416Y192441D01*
X1029388Y192844D01*
X1030384Y193182D01*
X1031400Y193454D01*
X1032432Y193659D01*
X1033474Y193797D01*
X1034524Y193866D01*
X1035576Y193866D01*
X1036626Y193797D01*
X1037668Y193659D01*
X1038700Y193454D01*
X1039716Y193182D01*
X1040712Y192844D01*
X1041684Y192441D01*
X1042627Y191976D01*
X1043538Y191450D01*
X1044413Y190866D01*
X1045247Y190225D01*
X1046038Y189532D01*
X1046782Y188788D01*
X1047475Y187997D01*
X1048116Y187163D01*
X1048700Y186288D01*
X1049226Y185377D01*
X1049691Y184434D01*
X1050094Y183462D01*
X1050432Y182466D01*
X1050704Y181450D01*
X1050909Y180418D01*
X1051047Y179376D01*
X1051116Y178326D01*
X1051116Y177274D01*
X1051116Y539224D02*
X1051047Y538174D01*
X1050909Y537132D01*
X1050704Y536100D01*
X1050432Y535084D01*
X1050094Y534088D01*
X1049691Y533116D01*
X1049226Y532173D01*
X1048700Y531262D01*
X1048116Y530387D01*
X1047475Y529553D01*
X1046782Y528762D01*
X1046038Y528018D01*
X1045247Y527325D01*
X1044413Y526684D01*
X1043538Y526100D01*
X1042627Y525574D01*
X1041684Y525109D01*
X1040712Y524706D01*
X1039716Y524368D01*
X1038700Y524096D01*
X1037668Y523891D01*
X1036626Y523753D01*
X1035576Y523685D01*
X1034524Y523685D01*
X1033474Y523753D01*
X1032432Y523891D01*
X1031400Y524096D01*
X1030384Y524368D01*
X1029388Y524706D01*
X1028416Y525109D01*
X1027473Y525574D01*
X1026562Y526100D01*
X1025687Y526684D01*
X1024853Y527325D01*
X1024062Y528018D01*
X1023318Y528762D01*
X1022625Y529553D01*
X1021984Y530387D01*
X1021400Y531262D01*
X1020874Y532173D01*
X1020409Y533116D01*
X1020006Y534088D01*
X1019668Y535084D01*
X1019396Y536100D01*
X1019191Y537132D01*
X1019053Y538174D01*
X1018985Y539224D01*
X1018985Y540276D01*
X1019053Y541326D01*
X1019191Y542368D01*
X1019396Y543400D01*
X1019668Y544416D01*
X1020006Y545412D01*
X1020409Y546384D01*
X1020874Y547327D01*
X1021400Y548238D01*
X1021984Y549113D01*
X1022625Y549947D01*
X1023318Y550738D01*
X1024062Y551482D01*
X1024853Y552175D01*
X1025687Y552816D01*
X1026562Y553400D01*
X1027473Y553926D01*
X1028416Y554391D01*
X1029388Y554794D01*
X1030384Y555132D01*
X1031400Y555404D01*
X1032432Y555609D01*
X1033474Y555747D01*
X1034524Y555816D01*
X1035576Y555816D01*
X1036626Y555747D01*
X1037668Y555609D01*
X1038700Y555404D01*
X1039716Y555132D01*
X1040712Y554794D01*
X1041684Y554391D01*
X1042627Y553926D01*
X1043538Y553400D01*
X1044413Y552816D01*
X1045247Y552175D01*
X1046038Y551482D01*
X1046782Y550738D01*
X1047475Y549947D01*
X1048116Y549113D01*
X1048700Y548238D01*
X1049226Y547327D01*
X1049691Y546384D01*
X1050094Y545412D01*
X1050432Y544416D01*
X1050704Y543400D01*
X1050909Y542368D01*
X1051047Y541326D01*
X1051116Y540276D01*
X1051116Y539224D01*
X37425Y358578D02*
X37363Y358190D01*
X37242Y357815D01*
X37063Y357465D01*
X36832Y357146D01*
X36554Y356868D01*
X36235Y356637D01*
X35885Y356458D01*
X35510Y356337D01*
X35122Y356275D01*
X34728Y356275D01*
X34340Y356337D01*
X33965Y356458D01*
X33615Y356637D01*
X33296Y356868D01*
X33018Y357146D01*
X32787Y357465D01*
X32608Y357815D01*
X32487Y358190D01*
X32425Y358578D01*
X32425Y358972D01*
X32487Y359360D01*
X32608Y359735D01*
X32787Y360085D01*
X33018Y360404D01*
X33296Y360682D01*
X33615Y360913D01*
X33965Y361092D01*
X34340Y361213D01*
X34728Y361275D01*
X35122Y361275D01*
X35510Y361213D01*
X35885Y361092D01*
X36235Y360913D01*
X36554Y360682D01*
X36832Y360404D01*
X37063Y360085D01*
X37242Y359735D01*
X37363Y359360D01*
X37425Y358972D01*
X37425Y358578D01*
X43775Y358578D02*
X43713Y358190D01*
X43592Y357815D01*
X43413Y357465D01*
X43182Y357146D01*
X42904Y356868D01*
X42585Y356637D01*
X42235Y356458D01*
X41860Y356337D01*
X41472Y356275D01*
X41078Y356275D01*
X40690Y356337D01*
X40315Y356458D01*
X39965Y356637D01*
X39646Y356868D01*
X39368Y357146D01*
X39137Y357465D01*
X38958Y357815D01*
X38837Y358190D01*
X38775Y358578D01*
X38775Y358972D01*
X38837Y359360D01*
X38958Y359735D01*
X39137Y360085D01*
X39368Y360404D01*
X39646Y360682D01*
X39965Y360913D01*
X40315Y361092D01*
X40690Y361213D01*
X41078Y361275D01*
X41472Y361275D01*
X41860Y361213D01*
X42235Y361092D01*
X42585Y360913D01*
X42904Y360682D01*
X43182Y360404D01*
X43413Y360085D01*
X43592Y359735D01*
X43713Y359360D01*
X43775Y358972D01*
X43775Y358578D01*
X50125Y358578D02*
X50063Y358190D01*
X49942Y357815D01*
X49763Y357465D01*
X49532Y357146D01*
X49254Y356868D01*
X48935Y356637D01*
X48585Y356458D01*
X48210Y356337D01*
X47822Y356275D01*
X47428Y356275D01*
X47040Y356337D01*
X46665Y356458D01*
X46315Y356637D01*
X45996Y356868D01*
X45718Y357146D01*
X45487Y357465D01*
X45308Y357815D01*
X45187Y358190D01*
X45125Y358578D01*
X45125Y358972D01*
X45187Y359360D01*
X45308Y359735D01*
X45487Y360085D01*
X45718Y360404D01*
X45996Y360682D01*
X46315Y360913D01*
X46665Y361092D01*
X47040Y361213D01*
X47428Y361275D01*
X47822Y361275D01*
X48210Y361213D01*
X48585Y361092D01*
X48935Y360913D01*
X49254Y360682D01*
X49532Y360404D01*
X49763Y360085D01*
X49942Y359735D01*
X50063Y359360D01*
X50125Y358972D01*
X50125Y358578D01*
X1047075Y358578D02*
X1047013Y358190D01*
X1046892Y357815D01*
X1046713Y357465D01*
X1046482Y357146D01*
X1046204Y356868D01*
X1045885Y356637D01*
X1045535Y356458D01*
X1045160Y356337D01*
X1044772Y356275D01*
X1044378Y356275D01*
X1043990Y356337D01*
X1043615Y356458D01*
X1043265Y356637D01*
X1042946Y356868D01*
X1042668Y357146D01*
X1042437Y357465D01*
X1042258Y357815D01*
X1042137Y358190D01*
X1042075Y358578D01*
X1042075Y358972D01*
X1042137Y359360D01*
X1042258Y359735D01*
X1042437Y360085D01*
X1042668Y360404D01*
X1042946Y360682D01*
X1043265Y360913D01*
X1043615Y361092D01*
X1043990Y361213D01*
X1044378Y361275D01*
X1044772Y361275D01*
X1045160Y361213D01*
X1045535Y361092D01*
X1045885Y360913D01*
X1046204Y360682D01*
X1046482Y360404D01*
X1046713Y360085D01*
X1046892Y359735D01*
X1047013Y359360D01*
X1047075Y358972D01*
X1047075Y358578D01*
X1040725Y358578D02*
X1040663Y358190D01*
X1040542Y357815D01*
X1040363Y357465D01*
X1040132Y357146D01*
X1039854Y356868D01*
X1039535Y356637D01*
X1039185Y356458D01*
X1038810Y356337D01*
X1038422Y356275D01*
X1038028Y356275D01*
X1037640Y356337D01*
X1037265Y356458D01*
X1036915Y356637D01*
X1036596Y356868D01*
X1036318Y357146D01*
X1036087Y357465D01*
X1035908Y357815D01*
X1035787Y358190D01*
X1035725Y358578D01*
X1035725Y358972D01*
X1035787Y359360D01*
X1035908Y359735D01*
X1036087Y360085D01*
X1036318Y360404D01*
X1036596Y360682D01*
X1036915Y360913D01*
X1037265Y361092D01*
X1037640Y361213D01*
X1038028Y361275D01*
X1038422Y361275D01*
X1038810Y361213D01*
X1039185Y361092D01*
X1039535Y360913D01*
X1039854Y360682D01*
X1040132Y360404D01*
X1040363Y360085D01*
X1040542Y359735D01*
X1040663Y359360D01*
X1040725Y358972D01*
X1040725Y358578D01*
X1034375Y358578D02*
X1034313Y358190D01*
X1034192Y357815D01*
X1034013Y357465D01*
X1033782Y357146D01*
X1033504Y356868D01*
X1033185Y356637D01*
X1032835Y356458D01*
X1032460Y356337D01*
X1032072Y356275D01*
X1031678Y356275D01*
X1031290Y356337D01*
X1030915Y356458D01*
X1030565Y356637D01*
X1030246Y356868D01*
X1029968Y357146D01*
X1029737Y357465D01*
X1029558Y357815D01*
X1029437Y358190D01*
X1029375Y358578D01*
X1029375Y358972D01*
X1029437Y359360D01*
X1029558Y359735D01*
X1029737Y360085D01*
X1029968Y360404D01*
X1030246Y360682D01*
X1030565Y360913D01*
X1030915Y361092D01*
X1031290Y361213D01*
X1031678Y361275D01*
X1032072Y361275D01*
X1032460Y361213D01*
X1032835Y361092D01*
X1033185Y360913D01*
X1033504Y360682D01*
X1033782Y360404D01*
X1034013Y360085D01*
X1034192Y359735D01*
X1034313Y359360D01*
X1034375Y358972D01*
X1034375Y358578D01*
X535900Y358578D02*
X535838Y358190D01*
X535717Y357815D01*
X535538Y357465D01*
X535307Y357146D01*
X535029Y356868D01*
X534710Y356637D01*
X534360Y356458D01*
X533985Y356337D01*
X533597Y356275D01*
X533203Y356275D01*
X532815Y356337D01*
X532440Y356458D01*
X532090Y356637D01*
X531771Y356868D01*
X531493Y357146D01*
X531262Y357465D01*
X531083Y357815D01*
X530962Y358190D01*
X530900Y358578D01*
X530900Y358972D01*
X530962Y359360D01*
X531083Y359735D01*
X531262Y360085D01*
X531493Y360404D01*
X531771Y360682D01*
X532090Y360913D01*
X532440Y361092D01*
X532815Y361213D01*
X533203Y361275D01*
X533597Y361275D01*
X533985Y361213D01*
X534360Y361092D01*
X534710Y360913D01*
X535029Y360682D01*
X535307Y360404D01*
X535538Y360085D01*
X535717Y359735D01*
X535838Y359360D01*
X535900Y358972D01*
X535900Y358578D01*
X542250Y358578D02*
X542188Y358190D01*
X542067Y357815D01*
X541888Y357465D01*
X541657Y357146D01*
X541379Y356868D01*
X541060Y356637D01*
X540710Y356458D01*
X540335Y356337D01*
X539947Y356275D01*
X539553Y356275D01*
X539165Y356337D01*
X538790Y356458D01*
X538440Y356637D01*
X538121Y356868D01*
X537843Y357146D01*
X537612Y357465D01*
X537433Y357815D01*
X537312Y358190D01*
X537250Y358578D01*
X537250Y358972D01*
X537312Y359360D01*
X537433Y359735D01*
X537612Y360085D01*
X537843Y360404D01*
X538121Y360682D01*
X538440Y360913D01*
X538790Y361092D01*
X539165Y361213D01*
X539553Y361275D01*
X539947Y361275D01*
X540335Y361213D01*
X540710Y361092D01*
X541060Y360913D01*
X541379Y360682D01*
X541657Y360404D01*
X541888Y360085D01*
X542067Y359735D01*
X542188Y359360D01*
X542250Y358972D01*
X542250Y358578D01*
X548600Y358578D02*
X548538Y358190D01*
X548417Y357815D01*
X548238Y357465D01*
X548007Y357146D01*
X547729Y356868D01*
X547410Y356637D01*
X547060Y356458D01*
X546685Y356337D01*
X546297Y356275D01*
X545903Y356275D01*
X545515Y356337D01*
X545140Y356458D01*
X544790Y356637D01*
X544471Y356868D01*
X544193Y357146D01*
X543962Y357465D01*
X543783Y357815D01*
X543662Y358190D01*
X543600Y358578D01*
X543600Y358972D01*
X543662Y359360D01*
X543783Y359735D01*
X543962Y360085D01*
X544193Y360404D01*
X544471Y360682D01*
X544790Y360913D01*
X545140Y361092D01*
X545515Y361213D01*
X545903Y361275D01*
X546297Y361275D01*
X546685Y361213D01*
X547060Y361092D01*
X547410Y360913D01*
X547729Y360682D01*
X548007Y360404D01*
X548238Y360085D01*
X548417Y359735D01*
X548538Y359360D01*
X548600Y358972D01*
X548600Y358578D01*
M02*
