G04 EAGLE Gerber RS-274X export*
G75*
%MOMM*%
%FSLAX34Y34*%
%LPD*%
%INSoldermask Top*%
%IPPOS*%
%AMOC8*
5,1,8,0,0,1.08239X$1,22.5*%
G01*
%ADD10C,3.416300*%
%ADD11C,0.703200*%
%ADD12P,1.649562X8X292.500000*%
%ADD13C,1.524000*%
%ADD14P,1.649562X8X202.500000*%
%ADD15P,1.649562X8X22.500000*%
%ADD16P,1.649562X8X112.500000*%
%ADD17P,4.278904X8X22.500000*%
%ADD18P,4.278904X8X292.500000*%
%ADD19R,1.879600X1.879600*%
%ADD20P,2.034460X8X202.500000*%
%ADD21R,3.319200X3.319200*%
%ADD22C,2.908300*%
%ADD23P,1.951982X8X292.500000*%
%ADD24C,1.803400*%
%ADD25P,1.759533X8X112.500000*%
%ADD26C,1.727200*%
%ADD27R,1.209600X1.209600*%


D10*
X1035050Y177800D03*
X1035050Y539750D03*
D11*
X34925Y358775D03*
X41275Y358775D03*
X47625Y358775D03*
X1044575Y358775D03*
X1038225Y358775D03*
X1031875Y358775D03*
X533400Y358775D03*
X539750Y358775D03*
X546100Y358775D03*
D12*
X787400Y565150D03*
X787400Y514350D03*
X1003300Y501650D03*
X1003300Y450850D03*
D13*
X977900Y571246D02*
X977900Y584454D01*
X952500Y584454D02*
X952500Y571246D01*
X825500Y571246D02*
X825500Y584454D01*
X825500Y508254D02*
X825500Y495046D01*
X927100Y571246D02*
X927100Y584454D01*
X901700Y584454D02*
X901700Y571246D01*
X850900Y571246D02*
X850900Y584454D01*
X876300Y584454D02*
X876300Y571246D01*
X850900Y508254D02*
X850900Y495046D01*
X876300Y495046D02*
X876300Y508254D01*
X901700Y508254D02*
X901700Y495046D01*
X927100Y495046D02*
X927100Y508254D01*
X952500Y508254D02*
X952500Y495046D01*
X977900Y495046D02*
X977900Y508254D01*
X711200Y571246D02*
X711200Y584454D01*
X685800Y584454D02*
X685800Y571246D01*
X660400Y571246D02*
X660400Y584454D01*
X635000Y584454D02*
X635000Y571246D01*
X609600Y571246D02*
X609600Y584454D01*
X584200Y584454D02*
X584200Y571246D01*
X558800Y571246D02*
X558800Y584454D01*
X533400Y584454D02*
X533400Y571246D01*
X533400Y508254D02*
X533400Y495046D01*
X558800Y495046D02*
X558800Y508254D01*
X584200Y508254D02*
X584200Y495046D01*
X609600Y495046D02*
X609600Y508254D01*
X635000Y508254D02*
X635000Y495046D01*
X660400Y495046D02*
X660400Y508254D01*
X685800Y508254D02*
X685800Y495046D01*
X711200Y495046D02*
X711200Y508254D01*
D14*
X209550Y641350D03*
X222250Y622300D03*
X234950Y641350D03*
D15*
X234950Y679450D03*
X222250Y698500D03*
X209550Y679450D03*
D16*
X571500Y615950D03*
X571500Y692150D03*
X520700Y615950D03*
X520700Y692150D03*
D12*
X495300Y692150D03*
X495300Y615950D03*
D16*
X952500Y615950D03*
X952500Y692150D03*
D12*
X927100Y692150D03*
X927100Y615950D03*
D16*
X977900Y615950D03*
X977900Y692150D03*
D12*
X596900Y304800D03*
X596900Y228600D03*
D15*
X482600Y203200D03*
X558800Y203200D03*
D14*
X800100Y203200D03*
X723900Y203200D03*
D12*
X419100Y692150D03*
X419100Y615950D03*
D15*
X342900Y679450D03*
X292100Y679450D03*
X317500Y654050D03*
X317500Y679450D03*
D14*
X355600Y615950D03*
X279400Y615950D03*
D12*
X850900Y692150D03*
X850900Y615950D03*
X800100Y692150D03*
X800100Y615950D03*
X876300Y692150D03*
X876300Y615950D03*
D16*
X901700Y615950D03*
X901700Y692150D03*
D12*
X825500Y692150D03*
X825500Y615950D03*
X444500Y692150D03*
X444500Y615950D03*
D16*
X736600Y679450D03*
X736600Y628650D03*
X762000Y654050D03*
X736600Y654050D03*
D12*
X546100Y692150D03*
X546100Y615950D03*
X635000Y692150D03*
X635000Y615950D03*
X660400Y692150D03*
X660400Y615950D03*
X609600Y692150D03*
X609600Y615950D03*
D15*
X342900Y412750D03*
X292100Y412750D03*
X317500Y387350D03*
X317500Y412750D03*
D12*
X749300Y400050D03*
X749300Y450850D03*
X723900Y425450D03*
X749300Y425450D03*
D16*
X546100Y387350D03*
X546100Y463550D03*
X635000Y387350D03*
X635000Y463550D03*
X660400Y387350D03*
X660400Y463550D03*
X609600Y387350D03*
X609600Y463550D03*
D12*
X571500Y463550D03*
X571500Y387350D03*
X520700Y463550D03*
X520700Y387350D03*
D16*
X495300Y387350D03*
X495300Y463550D03*
D12*
X952500Y463550D03*
X952500Y387350D03*
D16*
X927100Y387350D03*
X927100Y463550D03*
D12*
X977900Y463550D03*
X977900Y387350D03*
D15*
X241300Y444500D03*
X228600Y463550D03*
X215900Y444500D03*
D14*
X215900Y406400D03*
X228600Y387350D03*
X241300Y406400D03*
D16*
X419100Y387350D03*
X419100Y463550D03*
D14*
X355600Y463550D03*
X279400Y463550D03*
D16*
X850900Y387350D03*
X850900Y463550D03*
X800100Y387350D03*
X800100Y463550D03*
X876300Y387350D03*
X876300Y463550D03*
D12*
X901700Y463550D03*
X901700Y387350D03*
D16*
X825500Y387350D03*
X825500Y463550D03*
X444500Y387350D03*
X444500Y463550D03*
D17*
X998300Y326590D03*
X997300Y231940D03*
D18*
X970300Y279400D03*
X1050760Y279400D03*
D17*
X680800Y326590D03*
X679800Y231940D03*
D18*
X652800Y279400D03*
X733260Y279400D03*
D17*
X185500Y326590D03*
X184500Y231940D03*
D18*
X157500Y279400D03*
X237960Y279400D03*
D17*
X58500Y326590D03*
X57500Y231940D03*
D18*
X30500Y279400D03*
X110960Y279400D03*
D19*
X780900Y304400D03*
D20*
X780900Y279400D03*
X780900Y254400D03*
D21*
X850900Y234400D03*
X850900Y324400D03*
D19*
X450700Y304400D03*
D20*
X450700Y279400D03*
X450700Y254400D03*
D21*
X520700Y234400D03*
X520700Y324400D03*
D22*
X295910Y292926D02*
X295910Y265875D01*
X342900Y265875D02*
X342900Y292926D01*
X389890Y292926D02*
X389890Y265875D01*
D23*
X165100Y615950D03*
D24*
X165100Y641350D03*
D23*
X165100Y438150D03*
D24*
X165100Y463550D03*
D25*
X101600Y488950D03*
X76200Y488950D03*
X101600Y514350D03*
X76200Y514350D03*
X101600Y539750D03*
X76200Y539750D03*
X101600Y565150D03*
X76200Y565150D03*
X101600Y590550D03*
X76200Y590550D03*
D16*
X495300Y514350D03*
X495300Y565150D03*
D12*
X749300Y565150D03*
X749300Y514350D03*
D16*
X596900Y50800D03*
X596900Y127000D03*
D15*
X482600Y152400D03*
X558800Y152400D03*
D14*
X800100Y152400D03*
X723900Y152400D03*
D17*
X998300Y123390D03*
X997300Y28740D03*
D18*
X970300Y76200D03*
X1050760Y76200D03*
D17*
X680800Y123390D03*
X679800Y28740D03*
D18*
X652800Y76200D03*
X733260Y76200D03*
D17*
X185500Y123390D03*
X184500Y28740D03*
D18*
X157500Y76200D03*
X237960Y76200D03*
D17*
X58500Y123390D03*
X57500Y28740D03*
D18*
X30500Y76200D03*
X110960Y76200D03*
D19*
X780900Y101200D03*
D20*
X780900Y76200D03*
X780900Y51200D03*
D21*
X850900Y31200D03*
X850900Y121200D03*
D19*
X450700Y101200D03*
D20*
X450700Y76200D03*
X450700Y51200D03*
D21*
X520700Y31200D03*
X520700Y121200D03*
D22*
X295910Y89726D02*
X295910Y62675D01*
X342900Y62675D02*
X342900Y89726D01*
X389890Y89726D02*
X389890Y62675D01*
D26*
X406400Y132080D02*
X406400Y147320D01*
X381000Y147320D02*
X381000Y132080D01*
X355600Y132080D02*
X355600Y147320D01*
X330200Y147320D02*
X330200Y132080D01*
X304800Y132080D02*
X304800Y147320D01*
X279400Y147320D02*
X279400Y132080D01*
X406400Y208280D02*
X406400Y223520D01*
X381000Y223520D02*
X381000Y208280D01*
X355600Y208280D02*
X355600Y223520D01*
X330200Y223520D02*
X330200Y208280D01*
X304800Y208280D02*
X304800Y223520D01*
X279400Y223520D02*
X279400Y208280D01*
X279400Y570230D02*
X279400Y585470D01*
X304800Y585470D02*
X304800Y570230D01*
X330200Y570230D02*
X330200Y585470D01*
X355600Y585470D02*
X355600Y570230D01*
X381000Y570230D02*
X381000Y585470D01*
X406400Y585470D02*
X406400Y570230D01*
X279400Y509270D02*
X279400Y494030D01*
X304800Y494030D02*
X304800Y509270D01*
X330200Y509270D02*
X330200Y494030D01*
X355600Y494030D02*
X355600Y509270D01*
X381000Y509270D02*
X381000Y494030D01*
X406400Y494030D02*
X406400Y509270D01*
X165100Y185420D02*
X165100Y170180D01*
X190500Y170180D02*
X190500Y185420D01*
X215900Y185420D02*
X215900Y170180D01*
X241300Y170180D02*
X241300Y185420D01*
X241300Y532130D02*
X241300Y547370D01*
X215900Y547370D02*
X215900Y532130D01*
X190500Y532130D02*
X190500Y547370D01*
X165100Y547370D02*
X165100Y532130D01*
D27*
X914400Y527050D03*
X596900Y527050D03*
X876300Y552450D03*
X469900Y387350D03*
X469900Y552450D03*
X342900Y387350D03*
X469900Y692150D03*
X546100Y666750D03*
X450850Y488950D03*
X444500Y590550D03*
X393700Y615950D03*
X393700Y463550D03*
X381000Y679450D03*
X330200Y628650D03*
X711200Y628650D03*
X304800Y641350D03*
X444500Y641350D03*
X825500Y641350D03*
X444500Y438150D03*
X304800Y438150D03*
X825500Y438150D03*
X698500Y450850D03*
X330200Y450850D03*
X482600Y603250D03*
X368300Y476250D03*
X381000Y425450D03*
X520700Y425450D03*
X431800Y412750D03*
X431800Y476250D03*
M02*
